<svg width="512" height="512" viewBox="0 0 512 512" fill="none" xmlns="http://www.w3.org/2000/svg">
<rect width="512" height="512" fill="#1D1D26"/>
<path d="M92.818 192.434L116.038 240.422C117.013 242.371 117.5 243.833 117.5 244.808C117.5 246.872 115.837 248.735 112.512 250.398C110.563 251.373 109.015 251.86 107.868 251.86C106.779 251.86 105.861 251.602 105.116 251.086C104.428 250.57 103.912 250.025 103.568 249.452C103.281 248.879 102.851 248.019 102.278 246.872L97.806 237.584H73.984L69.512 246.872C68.9387 248.019 68.48 248.85 68.136 249.366C67.8493 249.882 67.3333 250.427 66.588 251C65.9 251.516 64.9827 251.774 63.836 251.774C62.7467 251.774 61.2273 251.287 59.278 250.312C55.9527 248.707 54.29 246.872 54.29 244.808C54.29 243.833 54.7773 242.371 55.752 240.422L78.972 192.348C79.6027 191.029 80.5487 189.969 81.81 189.166C83.1287 188.363 84.5047 187.962 85.938 187.962C89.034 187.962 91.3273 189.453 92.818 192.434ZM85.852 213.074L80.176 224.856H91.614L85.852 213.074ZM137.422 238.272H160.814C162.706 238.272 164.082 238.501 164.942 238.96C165.802 239.361 166.375 240.021 166.662 240.938C166.948 241.855 167.092 243.088 167.092 244.636C167.092 246.127 166.948 247.331 166.662 248.248C166.375 249.165 165.888 249.796 165.2 250.14C164.11 250.713 162.62 251 160.728 251H129.768C125.754 251 123.404 249.911 122.716 247.732C122.372 246.815 122.2 245.353 122.2 243.346V195.53C122.2 194.211 122.228 193.237 122.286 192.606C122.4 191.918 122.687 191.144 123.146 190.284C123.948 188.736 126.184 187.962 129.854 187.962C133.867 187.962 136.246 189.023 136.992 191.144C137.278 192.119 137.422 193.609 137.422 195.616V238.272ZM187.896 235.778H214.384C215.703 235.778 216.678 235.835 217.308 235.95C217.996 236.007 218.77 236.265 219.63 236.724C221.178 237.527 221.952 239.763 221.952 243.432C221.952 247.445 220.892 249.796 218.77 250.484C217.796 250.828 216.305 251 214.298 251H180.242C176.229 251 173.878 249.911 173.19 247.732C172.846 246.815 172.674 245.353 172.674 243.346V195.53C172.674 192.606 173.219 190.628 174.308 189.596C175.398 188.507 177.462 187.962 180.5 187.962H214.384C215.703 187.962 216.678 188.019 217.308 188.134C217.996 188.191 218.77 188.449 219.63 188.908C221.178 189.711 221.952 191.947 221.952 195.616C221.952 199.629 220.892 201.98 218.77 202.668C217.796 203.012 216.305 203.184 214.298 203.184H187.896V211.87H204.924C206.243 211.87 207.218 211.927 207.848 212.042C208.536 212.099 209.31 212.357 210.17 212.816C211.718 213.619 212.492 215.855 212.492 219.524C212.492 223.537 211.403 225.888 209.224 226.576C208.25 226.92 206.759 227.092 204.752 227.092H187.896V235.778ZM231.644 187.876H279.46C281.295 187.876 282.642 188.105 283.502 188.564C284.362 188.965 284.936 189.625 285.222 190.542C285.509 191.459 285.652 192.663 285.652 194.154C285.652 195.645 285.509 196.849 285.222 197.766C284.936 198.626 284.448 199.228 283.76 199.572C282.728 200.088 281.266 200.346 279.374 200.346H262.948V243.604C262.948 244.923 262.891 245.897 262.776 246.528C262.719 247.159 262.461 247.904 262.002 248.764C261.601 249.567 260.856 250.14 259.766 250.484C258.677 250.828 257.244 251 255.466 251C253.689 251 252.256 250.828 251.166 250.484C250.134 250.14 249.389 249.567 248.93 248.764C248.529 247.904 248.271 247.159 248.156 246.528C248.099 245.84 248.07 244.837 248.07 243.518V200.346H231.558C229.724 200.346 228.376 200.145 227.516 199.744C226.656 199.285 226.083 198.597 225.796 197.68C225.51 196.763 225.366 195.559 225.366 194.068C225.366 192.577 225.51 191.402 225.796 190.542C226.083 189.625 226.57 188.994 227.258 188.65C228.29 188.134 229.752 187.876 231.644 187.876ZM294.548 187.876H342.364C344.199 187.876 345.546 188.105 346.406 188.564C347.266 188.965 347.84 189.625 348.126 190.542C348.413 191.459 348.556 192.663 348.556 194.154C348.556 195.645 348.413 196.849 348.126 197.766C347.84 198.626 347.352 199.228 346.664 199.572C345.632 200.088 344.17 200.346 342.278 200.346H325.852V243.604C325.852 244.923 325.795 245.897 325.68 246.528C325.623 247.159 325.365 247.904 324.906 248.764C324.505 249.567 323.76 250.14 322.67 250.484C321.581 250.828 320.148 251 318.37 251C316.593 251 315.16 250.828 314.07 250.484C313.038 250.14 312.293 249.567 311.834 248.764C311.433 247.904 311.175 247.159 311.06 246.528C311.003 245.84 310.974 244.837 310.974 243.518V200.346H294.462C292.628 200.346 291.28 200.145 290.42 199.744C289.56 199.285 288.987 198.597 288.7 197.68C288.414 196.763 288.27 195.559 288.27 194.068C288.27 192.577 288.414 191.402 288.7 190.542C288.987 189.625 289.474 188.994 290.162 188.65C291.194 188.134 292.656 187.876 294.548 187.876ZM352.591 242.142C351.1 240.307 350.355 238.673 350.355 237.24C350.355 235.749 351.588 233.8 354.053 231.392C355.486 230.016 357.006 229.328 358.611 229.328C360.216 229.328 362.452 230.761 365.319 233.628C366.122 234.603 367.268 235.549 368.759 236.466C370.25 237.326 371.626 237.756 372.887 237.756C378.219 237.756 380.885 235.577 380.885 231.22C380.885 229.901 380.14 228.812 378.649 227.952C377.216 227.035 375.41 226.375 373.231 225.974C371.052 225.573 368.702 224.942 366.179 224.082C363.656 223.165 361.306 222.104 359.127 220.9C356.948 219.696 355.114 217.804 353.623 215.224C352.19 212.587 351.473 209.433 351.473 205.764C351.473 200.719 353.336 196.333 357.063 192.606C360.847 188.822 365.978 186.93 372.457 186.93C375.897 186.93 379.022 187.389 381.831 188.306C384.698 189.166 386.676 190.055 387.765 190.972L389.915 192.606C391.692 194.269 392.581 195.673 392.581 196.82C392.581 197.967 391.893 199.543 390.517 201.55C388.568 204.417 386.561 205.85 384.497 205.85C383.293 205.85 381.802 205.277 380.025 204.13C379.853 204.015 379.509 203.729 378.993 203.27C378.534 202.811 378.104 202.439 377.703 202.152C376.499 201.407 374.951 201.034 373.059 201.034C371.224 201.034 369.676 201.493 368.415 202.41C367.211 203.27 366.609 204.503 366.609 206.108C366.609 207.656 367.326 208.917 368.759 209.892C370.25 210.867 372.084 211.526 374.263 211.87C376.442 212.214 378.821 212.759 381.401 213.504C383.981 214.192 386.36 215.052 388.539 216.084C390.718 217.116 392.524 218.922 393.957 221.502C395.448 224.025 396.193 227.149 396.193 230.876C396.193 234.603 395.448 237.899 393.957 240.766C392.466 243.575 390.517 245.754 388.109 247.302C383.465 250.341 378.506 251.86 373.231 251.86C370.536 251.86 367.985 251.545 365.577 250.914C363.169 250.226 361.22 249.395 359.729 248.42C356.69 246.585 354.569 244.808 353.365 243.088L352.591 242.142ZM449.232 189.166C452.042 191.115 453.446 193.007 453.446 194.842C453.446 195.931 452.787 197.451 451.468 199.4L432.892 227.178V243.604C432.892 244.923 432.835 245.926 432.72 246.614C432.663 247.245 432.405 247.99 431.946 248.85C431.488 249.71 430.714 250.312 429.624 250.656C428.535 251 427.073 251.172 425.238 251.172C423.404 251.172 421.942 251 420.852 250.656C419.763 250.312 418.989 249.71 418.53 248.85C418.072 247.933 417.785 247.159 417.67 246.528C417.613 245.84 417.584 244.808 417.584 243.432V227.178L399.008 199.4C397.69 197.451 397.03 195.931 397.03 194.842C397.03 193.007 398.292 191.259 400.814 189.596C403.337 187.876 405.143 187.016 406.232 187.016C407.322 187.016 408.182 187.245 408.812 187.704C409.787 188.335 410.819 189.51 411.908 191.23L425.238 212.558L438.568 191.23C439.658 189.51 440.604 188.392 441.406 187.876C442.209 187.303 443.126 187.016 444.158 187.016C445.248 187.016 446.939 187.733 449.232 189.166Z" fill="#D69D58"/>
<mask id="path-3-outside-1_4_9" maskUnits="userSpaceOnUse" x="54" y="180" width="408" height="74" fill="black">
<rect fill="white" x="54" y="180" width="408" height="74"/>
<path d="M96.818 190.434L120.038 238.422C121.013 240.371 121.5 241.833 121.5 242.808C121.5 244.872 119.837 246.735 116.512 248.398C114.563 249.373 113.015 249.86 111.868 249.86C110.779 249.86 109.861 249.602 109.116 249.086C108.428 248.57 107.912 248.025 107.568 247.452C107.281 246.879 106.851 246.019 106.278 244.872L101.806 235.584H77.984L73.512 244.872C72.9387 246.019 72.48 246.85 72.136 247.366C71.8493 247.882 71.3333 248.427 70.588 249C69.9 249.516 68.9827 249.774 67.836 249.774C66.7467 249.774 65.2273 249.287 63.278 248.312C59.9527 246.707 58.29 244.872 58.29 242.808C58.29 241.833 58.7773 240.371 59.752 238.422L82.972 190.348C83.6027 189.029 84.5487 187.969 85.81 187.166C87.1287 186.363 88.5047 185.962 89.938 185.962C93.034 185.962 95.3273 187.453 96.818 190.434ZM89.852 211.074L84.176 222.856H95.614L89.852 211.074ZM141.422 236.272H164.814C166.706 236.272 168.082 236.501 168.942 236.96C169.802 237.361 170.375 238.021 170.662 238.938C170.948 239.855 171.092 241.088 171.092 242.636C171.092 244.127 170.948 245.331 170.662 246.248C170.375 247.165 169.888 247.796 169.2 248.14C168.11 248.713 166.62 249 164.728 249H133.768C129.754 249 127.404 247.911 126.716 245.732C126.372 244.815 126.2 243.353 126.2 241.346V193.53C126.2 192.211 126.228 191.237 126.286 190.606C126.4 189.918 126.687 189.144 127.146 188.284C127.948 186.736 130.184 185.962 133.854 185.962C137.867 185.962 140.246 187.023 140.992 189.144C141.278 190.119 141.422 191.609 141.422 193.616V236.272ZM191.896 233.778H218.384C219.703 233.778 220.678 233.835 221.308 233.95C221.996 234.007 222.77 234.265 223.63 234.724C225.178 235.527 225.952 237.763 225.952 241.432C225.952 245.445 224.892 247.796 222.77 248.484C221.796 248.828 220.305 249 218.298 249H184.242C180.229 249 177.878 247.911 177.19 245.732C176.846 244.815 176.674 243.353 176.674 241.346V193.53C176.674 190.606 177.219 188.628 178.308 187.596C179.398 186.507 181.462 185.962 184.5 185.962H218.384C219.703 185.962 220.678 186.019 221.308 186.134C221.996 186.191 222.77 186.449 223.63 186.908C225.178 187.711 225.952 189.947 225.952 193.616C225.952 197.629 224.892 199.98 222.77 200.668C221.796 201.012 220.305 201.184 218.298 201.184H191.896V209.87H208.924C210.243 209.87 211.218 209.927 211.848 210.042C212.536 210.099 213.31 210.357 214.17 210.816C215.718 211.619 216.492 213.855 216.492 217.524C216.492 221.537 215.403 223.888 213.224 224.576C212.25 224.92 210.759 225.092 208.752 225.092H191.896V233.778ZM235.644 185.876H283.46C285.295 185.876 286.642 186.105 287.502 186.564C288.362 186.965 288.936 187.625 289.222 188.542C289.509 189.459 289.652 190.663 289.652 192.154C289.652 193.645 289.509 194.849 289.222 195.766C288.936 196.626 288.448 197.228 287.76 197.572C286.728 198.088 285.266 198.346 283.374 198.346H266.948V241.604C266.948 242.923 266.891 243.897 266.776 244.528C266.719 245.159 266.461 245.904 266.002 246.764C265.601 247.567 264.856 248.14 263.766 248.484C262.677 248.828 261.244 249 259.466 249C257.689 249 256.256 248.828 255.166 248.484C254.134 248.14 253.389 247.567 252.93 246.764C252.529 245.904 252.271 245.159 252.156 244.528C252.099 243.84 252.07 242.837 252.07 241.518V198.346H235.558C233.724 198.346 232.376 198.145 231.516 197.744C230.656 197.285 230.083 196.597 229.796 195.68C229.51 194.763 229.366 193.559 229.366 192.068C229.366 190.577 229.51 189.402 229.796 188.542C230.083 187.625 230.57 186.994 231.258 186.65C232.29 186.134 233.752 185.876 235.644 185.876ZM298.548 185.876H346.364C348.199 185.876 349.546 186.105 350.406 186.564C351.266 186.965 351.84 187.625 352.126 188.542C352.413 189.459 352.556 190.663 352.556 192.154C352.556 193.645 352.413 194.849 352.126 195.766C351.84 196.626 351.352 197.228 350.664 197.572C349.632 198.088 348.17 198.346 346.278 198.346H329.852V241.604C329.852 242.923 329.795 243.897 329.68 244.528C329.623 245.159 329.365 245.904 328.906 246.764C328.505 247.567 327.76 248.14 326.67 248.484C325.581 248.828 324.148 249 322.37 249C320.593 249 319.16 248.828 318.07 248.484C317.038 248.14 316.293 247.567 315.834 246.764C315.433 245.904 315.175 245.159 315.06 244.528C315.003 243.84 314.974 242.837 314.974 241.518V198.346H298.462C296.628 198.346 295.28 198.145 294.42 197.744C293.56 197.285 292.987 196.597 292.7 195.68C292.414 194.763 292.27 193.559 292.27 192.068C292.27 190.577 292.414 189.402 292.7 188.542C292.987 187.625 293.474 186.994 294.162 186.65C295.194 186.134 296.656 185.876 298.548 185.876ZM356.591 240.142C355.1 238.307 354.355 236.673 354.355 235.24C354.355 233.749 355.588 231.8 358.053 229.392C359.486 228.016 361.006 227.328 362.611 227.328C364.216 227.328 366.452 228.761 369.319 231.628C370.122 232.603 371.268 233.549 372.759 234.466C374.25 235.326 375.626 235.756 376.887 235.756C382.219 235.756 384.885 233.577 384.885 229.22C384.885 227.901 384.14 226.812 382.649 225.952C381.216 225.035 379.41 224.375 377.231 223.974C375.052 223.573 372.702 222.942 370.179 222.082C367.656 221.165 365.306 220.104 363.127 218.9C360.948 217.696 359.114 215.804 357.623 213.224C356.19 210.587 355.473 207.433 355.473 203.764C355.473 198.719 357.336 194.333 361.063 190.606C364.847 186.822 369.978 184.93 376.457 184.93C379.897 184.93 383.022 185.389 385.831 186.306C388.698 187.166 390.676 188.055 391.765 188.972L393.915 190.606C395.692 192.269 396.581 193.673 396.581 194.82C396.581 195.967 395.893 197.543 394.517 199.55C392.568 202.417 390.561 203.85 388.497 203.85C387.293 203.85 385.802 203.277 384.025 202.13C383.853 202.015 383.509 201.729 382.993 201.27C382.534 200.811 382.104 200.439 381.703 200.152C380.499 199.407 378.951 199.034 377.059 199.034C375.224 199.034 373.676 199.493 372.415 200.41C371.211 201.27 370.609 202.503 370.609 204.108C370.609 205.656 371.326 206.917 372.759 207.892C374.25 208.867 376.084 209.526 378.263 209.87C380.442 210.214 382.821 210.759 385.401 211.504C387.981 212.192 390.36 213.052 392.539 214.084C394.718 215.116 396.524 216.922 397.957 219.502C399.448 222.025 400.193 225.149 400.193 228.876C400.193 232.603 399.448 235.899 397.957 238.766C396.466 241.575 394.517 243.754 392.109 245.302C387.465 248.341 382.506 249.86 377.231 249.86C374.536 249.86 371.985 249.545 369.577 248.914C367.169 248.226 365.22 247.395 363.729 246.42C360.69 244.585 358.569 242.808 357.365 241.088L356.591 240.142ZM453.232 187.166C456.042 189.115 457.446 191.007 457.446 192.842C457.446 193.931 456.787 195.451 455.468 197.4L436.892 225.178V241.604C436.892 242.923 436.835 243.926 436.72 244.614C436.663 245.245 436.405 245.99 435.946 246.85C435.488 247.71 434.714 248.312 433.624 248.656C432.535 249 431.073 249.172 429.238 249.172C427.404 249.172 425.942 249 424.852 248.656C423.763 248.312 422.989 247.71 422.53 246.85C422.072 245.933 421.785 245.159 421.67 244.528C421.613 243.84 421.584 242.808 421.584 241.432V225.178L403.008 197.4C401.69 195.451 401.03 193.931 401.03 192.842C401.03 191.007 402.292 189.259 404.814 187.596C407.337 185.876 409.143 185.016 410.232 185.016C411.322 185.016 412.182 185.245 412.812 185.704C413.787 186.335 414.819 187.51 415.908 189.23L429.238 210.558L442.568 189.23C443.658 187.51 444.604 186.392 445.406 185.876C446.209 185.303 447.126 185.016 448.158 185.016C449.248 185.016 450.939 185.733 453.232 187.166Z"/>
</mask>
<path d="M96.818 190.434L100.419 188.692L100.407 188.668L100.396 188.645L96.818 190.434ZM120.038 238.422L116.437 240.164L116.449 240.188L116.46 240.211L120.038 238.422ZM116.512 248.398L114.723 244.82L114.723 244.82L116.512 248.398ZM109.116 249.086L106.716 252.286L106.777 252.332L106.839 252.375L109.116 249.086ZM107.568 247.452L103.99 249.241L104.059 249.378L104.138 249.51L107.568 247.452ZM106.278 244.872L102.674 246.607L102.687 246.634L102.7 246.661L106.278 244.872ZM101.806 235.584L105.41 233.849L104.32 231.584H101.806V235.584ZM77.984 235.584V231.584H75.4704L74.38 233.849L77.984 235.584ZM73.512 244.872L77.0897 246.661L77.1031 246.634L77.116 246.607L73.512 244.872ZM72.136 247.366L68.8078 245.147L68.718 245.282L68.6394 245.423L72.136 247.366ZM70.588 249L72.988 252.2L73.0075 252.185L73.0268 252.17L70.588 249ZM63.278 248.312L65.0669 244.734L65.042 244.722L65.017 244.71L63.278 248.312ZM59.752 238.422L63.3297 240.211L63.342 240.186L63.3539 240.162L59.752 238.422ZM82.972 190.348L86.5739 192.088L86.5772 192.081L86.5805 192.074L82.972 190.348ZM85.81 187.166L83.7302 183.749L83.6961 183.77L83.6625 183.791L85.81 187.166ZM89.852 211.074L93.4453 209.317L89.8249 201.914L86.2484 209.338L89.852 211.074ZM84.176 222.856L80.5724 221.12L77.809 226.856H84.176V222.856ZM95.614 222.856V226.856H102.023L99.2073 221.099L95.614 222.856ZM93.2174 192.176L116.437 240.164L123.639 236.68L100.419 188.692L93.2174 192.176ZM116.46 240.211C116.895 241.08 117.175 241.751 117.34 242.245C117.517 242.777 117.5 242.926 117.5 242.808H125.5C125.5 240.814 124.606 238.614 123.616 236.633L116.46 240.211ZM117.5 242.808C117.5 242.661 117.59 242.73 117.268 243.09C116.897 243.507 116.134 244.115 114.723 244.82L118.301 251.976C121.867 250.193 125.5 247.324 125.5 242.808H117.5ZM114.723 244.82C112.915 245.724 112.055 245.86 111.868 245.86V253.86C113.974 253.86 116.21 253.021 118.301 251.976L114.723 244.82ZM111.868 245.86C111.638 245.86 111.506 245.833 111.446 245.816C111.392 245.801 111.383 245.79 111.393 245.797L106.839 252.375C108.379 253.441 110.132 253.86 111.868 253.86V245.86ZM111.516 245.886C111.129 245.596 111.011 245.417 110.998 245.394L104.138 249.51C104.813 250.634 105.727 251.544 106.716 252.286L111.516 245.886ZM111.146 245.663C111.145 245.662 111.145 245.661 111.144 245.66C111.143 245.659 111.143 245.658 111.142 245.656C111.133 245.638 111.148 245.668 111.139 245.65C111.121 245.613 111.154 245.679 111.136 245.643C111.061 245.493 111.207 245.786 111.132 245.636C111.132 245.635 111.131 245.634 111.13 245.633C111.13 245.632 111.129 245.63 111.129 245.629C111.11 245.592 111.144 245.659 111.125 245.622C111.052 245.475 111.195 245.762 111.122 245.615C111.121 245.614 111.121 245.613 111.12 245.612C111.12 245.611 111.119 245.61 111.118 245.609C111.072 245.516 111.161 245.694 111.115 245.602C111.041 245.453 111.186 245.743 111.111 245.595C111.107 245.585 111.109 245.59 111.104 245.581C111.029 245.43 111.176 245.724 111.101 245.574C111.1 245.572 111.1 245.571 111.099 245.57C111.099 245.569 111.098 245.568 111.097 245.567C111.012 245.396 111.179 245.73 111.094 245.559C111.089 245.55 111.095 245.562 111.09 245.552C111.052 245.475 111.1 245.572 111.061 245.494C111.059 245.489 111.06 245.492 111.058 245.487C111.057 245.486 111.056 245.485 111.056 245.483C111.055 245.482 111.055 245.481 111.054 245.48C111.053 245.478 111.053 245.477 111.052 245.476C111.051 245.475 111.051 245.473 111.05 245.472C111.048 245.467 111.049 245.47 111.047 245.465C110.967 245.306 111.111 245.594 111.031 245.435C111.031 245.433 111.03 245.432 111.03 245.431C111.029 245.43 111.028 245.428 111.028 245.427C111.027 245.426 111.026 245.425 111.026 245.423C111.025 245.422 111.025 245.421 111.024 245.42C111.014 245.399 111.026 245.425 111.016 245.404C111.016 245.403 111.015 245.402 111.014 245.4C111.014 245.399 111.013 245.398 111.012 245.397C111.012 245.395 111.011 245.394 111.011 245.393C111.01 245.391 111.009 245.39 111.009 245.389C111.008 245.388 111.007 245.386 111.007 245.385C111.006 245.384 111.005 245.382 111.005 245.381C111.004 245.38 111.003 245.379 111.003 245.377C111.002 245.376 111.001 245.375 111.001 245.373C110.959 245.289 111.012 245.395 110.969 245.31C110.884 245.14 111.051 245.473 110.965 245.302C110.965 245.301 110.964 245.3 110.963 245.298C110.963 245.297 110.962 245.296 110.961 245.294C110.961 245.293 110.96 245.292 110.959 245.29C110.959 245.289 110.958 245.288 110.957 245.286C110.871 245.114 111.039 245.45 110.953 245.278C110.948 245.268 110.951 245.273 110.945 245.262C110.856 245.083 111.031 245.433 110.941 245.254C110.94 245.253 110.94 245.251 110.939 245.25C110.938 245.248 110.938 245.247 110.937 245.246C110.893 245.159 110.964 245.3 110.921 245.213C110.837 245.047 110.999 245.371 110.916 245.204C110.916 245.203 110.915 245.202 110.914 245.2C110.914 245.199 110.913 245.198 110.912 245.196C110.823 245.018 110.997 245.366 110.908 245.188C110.902 245.177 110.909 245.191 110.904 245.179C110.858 245.088 110.916 245.203 110.87 245.111C110.847 245.065 110.876 245.123 110.852 245.077C110.852 245.075 110.851 245.074 110.85 245.072C110.85 245.071 110.849 245.069 110.848 245.068C110.847 245.067 110.847 245.065 110.846 245.064C110.845 245.062 110.844 245.061 110.844 245.059C110.721 244.814 110.958 245.287 110.835 245.042C110.834 245.04 110.833 245.039 110.833 245.037C110.832 245.036 110.831 245.034 110.831 245.033C110.83 245.031 110.829 245.03 110.828 245.028C110.828 245.027 110.827 245.025 110.826 245.024C110.825 245.022 110.825 245.021 110.824 245.02C110.823 245.018 110.822 245.017 110.822 245.015C110.821 245.014 110.82 245.012 110.819 245.011C110.819 245.009 110.818 245.008 110.817 245.006C110.722 244.816 110.904 245.179 110.808 244.988C110.808 244.987 110.807 244.985 110.806 244.984C110.805 244.982 110.805 244.981 110.804 244.979C110.803 244.978 110.802 244.976 110.802 244.975C110.801 244.973 110.8 244.972 110.799 244.97C110.799 244.969 110.798 244.967 110.797 244.966C110.796 244.964 110.796 244.963 110.795 244.961C110.794 244.96 110.793 244.958 110.792 244.957C110.792 244.955 110.791 244.954 110.79 244.952C110.73 244.831 110.842 245.055 110.781 244.934C110.78 244.932 110.78 244.931 110.779 244.929C110.778 244.928 110.777 244.926 110.777 244.925C110.776 244.923 110.775 244.922 110.774 244.92C110.773 244.919 110.773 244.917 110.772 244.916C110.771 244.914 110.77 244.913 110.77 244.911C110.769 244.91 110.768 244.908 110.767 244.906C110.767 244.905 110.766 244.903 110.765 244.902C110.764 244.9 110.764 244.899 110.763 244.897C110.663 244.698 110.788 244.947 110.687 244.746C110.661 244.694 110.703 244.778 110.677 244.727C110.567 244.506 110.783 244.937 110.673 244.717C110.595 244.561 110.746 244.863 110.668 244.707C110.642 244.655 110.684 244.74 110.658 244.688C110.645 244.661 110.661 244.694 110.648 244.668C110.622 244.615 110.655 244.681 110.628 244.628C110.615 244.602 110.632 244.635 110.618 244.608C110.485 244.342 110.742 244.855 110.608 244.588C110.607 244.586 110.607 244.585 110.606 244.583C110.605 244.581 110.604 244.58 110.603 244.578C110.6 244.571 110.601 244.575 110.598 244.568C110.597 244.566 110.596 244.565 110.596 244.563C110.595 244.561 110.594 244.559 110.593 244.558C110.592 244.556 110.591 244.554 110.59 244.553C110.59 244.551 110.589 244.549 110.588 244.548C110.587 244.546 110.586 244.544 110.585 244.543C110.585 244.541 110.584 244.539 110.583 244.537C110.582 244.536 110.581 244.534 110.58 244.532C110.579 244.531 110.579 244.529 110.578 244.527C110.577 244.525 110.576 244.524 110.575 244.522C110.574 244.52 110.573 244.519 110.573 244.517C110.572 244.515 110.571 244.514 110.57 244.512C110.569 244.51 110.568 244.508 110.567 244.507C110.567 244.505 110.566 244.503 110.565 244.502C110.564 244.5 110.563 244.498 110.562 244.496C110.561 244.495 110.561 244.493 110.56 244.491C110.559 244.489 110.558 244.488 110.557 244.486C110.556 244.484 110.555 244.483 110.555 244.481C110.554 244.479 110.553 244.477 110.552 244.476C110.428 244.227 110.671 244.714 110.547 244.465C110.546 244.464 110.545 244.462 110.544 244.46C110.543 244.458 110.542 244.457 110.542 244.455C110.541 244.453 110.54 244.451 110.539 244.45C110.538 244.448 110.537 244.446 110.536 244.444C110.425 244.222 110.643 244.657 110.531 244.434C110.53 244.432 110.529 244.431 110.529 244.429C110.528 244.427 110.527 244.425 110.526 244.424C110.525 244.422 110.524 244.42 110.523 244.418C110.522 244.417 110.522 244.415 110.521 244.413C110.408 244.189 110.628 244.627 110.515 244.402C110.515 244.401 110.514 244.399 110.513 244.397C110.512 244.395 110.511 244.394 110.51 244.392C110.509 244.39 110.508 244.388 110.507 244.387C110.507 244.385 110.506 244.383 110.505 244.381C110.406 244.183 110.599 244.569 110.499 244.371C110.499 244.369 110.498 244.367 110.497 244.365C110.496 244.364 110.495 244.362 110.494 244.36C110.493 244.358 110.492 244.357 110.492 244.355C110.491 244.353 110.49 244.351 110.489 244.349C110.432 244.236 110.54 244.453 110.483 244.339C110.483 244.337 110.482 244.335 110.481 244.333C110.48 244.332 110.479 244.33 110.478 244.328C110.477 244.326 110.476 244.324 110.475 244.323C110.475 244.321 110.474 244.319 110.473 244.317C110.415 244.203 110.525 244.421 110.467 244.306C110.466 244.305 110.466 244.303 110.465 244.301C110.464 244.299 110.463 244.297 110.462 244.296C110.461 244.294 110.46 244.292 110.459 244.29C110.458 244.288 110.457 244.287 110.457 244.285C110.399 244.169 110.509 244.39 110.451 244.274C110.45 244.272 110.449 244.27 110.448 244.269C110.448 244.267 110.447 244.265 110.446 244.263C110.445 244.261 110.444 244.259 110.443 244.258C110.442 244.256 110.441 244.254 110.44 244.252C110.426 244.223 110.449 244.27 110.435 244.241C110.434 244.239 110.433 244.238 110.432 244.236C110.431 244.234 110.43 244.232 110.429 244.23C110.428 244.228 110.427 244.227 110.427 244.225C110.426 244.223 110.425 244.221 110.424 244.219C110.423 244.218 110.422 244.216 110.421 244.214C110.42 244.212 110.419 244.21 110.418 244.208C110.417 244.206 110.416 244.205 110.416 244.203C110.415 244.201 110.414 244.199 110.413 244.197C110.412 244.195 110.411 244.194 110.41 244.192C110.409 244.19 110.408 244.188 110.407 244.186C110.406 244.184 110.405 244.183 110.404 244.181C110.404 244.179 110.403 244.177 110.402 244.175C110.401 244.173 110.4 244.171 110.399 244.17C110.398 244.168 110.397 244.166 110.396 244.164C110.395 244.162 110.394 244.16 110.393 244.158C110.392 244.157 110.392 244.155 110.391 244.153C110.39 244.151 110.389 244.149 110.388 244.147C110.387 244.145 110.386 244.144 110.385 244.142C110.355 244.082 110.409 244.19 110.379 244.131C110.378 244.129 110.378 244.127 110.377 244.125C110.376 244.123 110.375 244.121 110.374 244.119C110.373 244.117 110.372 244.116 110.371 244.114C110.37 244.112 110.369 244.11 110.368 244.108C110.367 244.106 110.366 244.104 110.365 244.102C110.364 244.101 110.363 244.099 110.363 244.097C110.362 244.095 110.361 244.093 110.36 244.091C110.359 244.089 110.358 244.087 110.357 244.085C110.356 244.084 110.355 244.082 110.354 244.08C110.353 244.078 110.352 244.076 110.351 244.074C110.306 243.983 110.391 244.154 110.346 244.063C110.345 244.061 110.344 244.059 110.343 244.057C110.342 244.055 110.341 244.053 110.34 244.051C110.339 244.05 110.338 244.048 110.337 244.046C110.336 244.044 110.335 244.042 110.334 244.04C110.319 244.01 110.344 244.059 110.328 244.029C110.325 244.021 110.327 244.025 110.323 244.017C110.322 244.015 110.321 244.013 110.32 244.011C110.319 244.009 110.318 244.008 110.317 244.006C110.256 243.883 110.372 244.117 110.311 243.994C110.31 243.992 110.309 243.99 110.308 243.988C110.307 243.986 110.306 243.985 110.305 243.983C110.304 243.981 110.304 243.979 110.303 243.977C110.302 243.975 110.301 243.973 110.3 243.971C110.238 243.848 110.356 244.083 110.294 243.959C110.293 243.958 110.292 243.956 110.291 243.954C110.29 243.952 110.289 243.95 110.288 243.948C110.287 243.946 110.286 243.944 110.285 243.942C110.284 243.94 110.283 243.938 110.282 243.936C110.22 243.812 110.339 244.049 110.276 243.925C110.275 243.923 110.274 243.921 110.273 243.919C110.273 243.917 110.272 243.915 110.271 243.913C110.27 243.911 110.269 243.909 110.268 243.907C110.267 243.905 110.266 243.903 110.265 243.901C110.171 243.713 110.353 244.078 110.259 243.889C110.258 243.887 110.257 243.885 110.256 243.884C110.255 243.882 110.254 243.88 110.253 243.878C110.252 243.876 110.251 243.874 110.25 243.872C110.249 243.87 110.248 243.868 110.247 243.866C110.137 243.645 110.351 244.074 110.241 243.854C110.24 243.852 110.239 243.85 110.238 243.848C110.237 243.846 110.236 243.844 110.235 243.842C110.219 243.811 110.239 243.85 110.223 243.818C110.222 243.816 110.221 243.814 110.22 243.812C110.219 243.81 110.218 243.808 110.217 243.806C110.216 243.804 110.215 243.802 110.214 243.8C110.213 243.798 110.212 243.796 110.211 243.794C110.083 243.539 110.333 244.038 110.205 243.783C110.204 243.781 110.203 243.779 110.202 243.777C110.201 243.775 110.2 243.773 110.199 243.771C110.198 243.769 110.197 243.766 110.196 243.764C110.195 243.762 110.194 243.76 110.193 243.758C110.192 243.756 110.191 243.754 110.19 243.752C110.189 243.75 110.188 243.748 110.187 243.746C110.171 243.714 110.179 243.73 110.163 243.698C110.162 243.696 110.161 243.694 110.16 243.692C110.159 243.69 110.158 243.688 110.157 243.686C110.156 243.684 110.155 243.682 110.154 243.68C110.153 243.678 110.152 243.676 110.151 243.674C110.15 243.671 110.149 243.669 110.148 243.667C110.147 243.665 110.146 243.663 110.145 243.661C110.144 243.659 110.143 243.657 110.142 243.655C110.141 243.653 110.14 243.651 110.139 243.649C110.138 243.647 110.137 243.645 110.136 243.643C110.135 243.641 110.134 243.639 110.132 243.637C110.131 243.635 110.13 243.633 110.129 243.631C110.128 243.628 110.127 243.626 110.126 243.624C110.125 243.622 110.124 243.62 110.123 243.618C110.122 243.616 110.121 243.614 110.12 243.612C110.119 243.61 110.118 243.608 110.117 243.606C110.116 243.604 110.115 243.602 110.114 243.6C110.113 243.598 110.112 243.596 110.111 243.593C110.11 243.591 110.109 243.589 110.108 243.587C110.107 243.585 110.106 243.583 110.105 243.581C110.104 243.579 110.103 243.577 110.102 243.575C110.101 243.573 110.099 243.571 110.098 243.569C110.097 243.567 110.096 243.564 110.095 243.562C110.094 243.56 110.093 243.558 110.092 243.556C110.091 243.554 110.09 243.552 110.089 243.55C110.088 243.548 110.087 243.546 110.086 243.544C110.085 243.542 110.084 243.539 110.083 243.537C110.082 243.535 110.081 243.533 110.08 243.531C110.079 243.529 110.078 243.527 110.077 243.525C110.076 243.523 110.074 243.521 110.073 243.519C110.072 243.516 110.071 243.514 110.07 243.512C110.069 243.51 110.068 243.508 110.067 243.506C110.066 243.504 110.065 243.502 110.064 243.5C110.063 243.498 110.062 243.496 110.061 243.493C110.06 243.491 110.059 243.489 110.058 243.487C110.057 243.485 110.056 243.483 110.055 243.481C110.053 243.479 110.052 243.477 110.051 243.474C110.05 243.472 110.049 243.47 110.048 243.468C110.047 243.466 110.046 243.464 110.045 243.462C110.044 243.46 110.043 243.458 110.042 243.455C110.041 243.453 110.04 243.451 110.039 243.449C110.038 243.447 110.037 243.445 110.036 243.443C110.034 243.441 110.033 243.439 110.032 243.436C110.031 243.434 110.03 243.432 110.029 243.43C110.028 243.428 110.027 243.426 110.026 243.424C110.025 243.422 110.024 243.419 110.023 243.417C110.022 243.415 110.021 243.413 110.02 243.411C110.019 243.409 110.017 243.407 110.016 243.404C110.015 243.402 110.014 243.4 110.013 243.398C110.012 243.396 110.011 243.394 110.01 243.392C110.009 243.39 110.008 243.387 110.007 243.385C110.006 243.383 110.005 243.381 110.004 243.379C110.002 243.377 110.001 243.375 110 243.372C109.999 243.37 109.998 243.368 109.997 243.366C109.996 243.364 109.995 243.362 109.994 243.36C109.993 243.357 109.992 243.355 109.991 243.353C109.99 243.351 109.989 243.349 109.987 243.347C109.986 243.344 109.985 243.342 109.984 243.34C109.983 243.338 109.982 243.336 109.981 243.334C109.98 243.332 109.979 243.329 109.978 243.327C109.977 243.325 109.976 243.323 109.975 243.321C109.973 243.319 109.972 243.316 109.971 243.314C109.97 243.312 109.969 243.31 109.968 243.308C109.967 243.306 109.966 243.303 109.965 243.301C109.964 243.299 109.963 243.297 109.962 243.295C109.96 243.293 109.959 243.29 109.958 243.288C109.957 243.286 109.956 243.284 109.955 243.282C109.954 243.28 109.953 243.277 109.952 243.275C109.951 243.273 109.95 243.271 109.948 243.269C109.947 243.267 109.946 243.264 109.945 243.262C109.944 243.26 109.943 243.258 109.942 243.256C109.938 243.247 109.94 243.251 109.935 243.243C109.934 243.24 109.933 243.238 109.932 243.236C109.931 243.234 109.93 243.232 109.929 243.229C109.863 243.098 109.988 243.348 109.922 243.216C109.921 243.214 109.92 243.212 109.919 243.21C109.918 243.207 109.917 243.205 109.916 243.203C109.898 243.168 109.927 243.225 109.909 243.19C109.768 242.907 110.037 243.446 109.896 243.163C109.883 243.137 109.902 243.177 109.889 243.15C109.888 243.148 109.887 243.146 109.886 243.143C109.885 243.141 109.884 243.139 109.882 243.137C109.881 243.134 109.88 243.132 109.879 243.13C109.878 243.128 109.877 243.126 109.876 243.123C109.867 243.106 109.878 243.128 109.869 243.11C109.868 243.108 109.867 243.106 109.866 243.103C109.865 243.101 109.864 243.099 109.862 243.097C109.861 243.094 109.86 243.092 109.859 243.09C109.858 243.088 109.857 243.085 109.856 243.083L102.7 246.661C102.705 246.67 102.703 246.665 102.707 246.674C102.781 246.822 102.64 246.54 102.714 246.688C102.715 246.69 102.716 246.692 102.717 246.694C102.718 246.697 102.719 246.699 102.72 246.701C102.723 246.705 102.725 246.71 102.727 246.714C102.736 246.732 102.745 246.75 102.754 246.768C102.755 246.77 102.756 246.772 102.757 246.774C102.758 246.776 102.759 246.779 102.76 246.781C102.761 246.783 102.762 246.785 102.764 246.787C102.765 246.79 102.766 246.792 102.767 246.794C102.768 246.796 102.769 246.798 102.77 246.8C102.771 246.803 102.772 246.805 102.773 246.807C102.774 246.809 102.776 246.811 102.777 246.814C102.778 246.816 102.779 246.818 102.78 246.82C102.797 246.855 102.789 246.838 102.806 246.872C102.945 247.149 102.681 246.622 102.819 246.898C102.82 246.901 102.821 246.903 102.822 246.905C102.823 246.907 102.825 246.909 102.826 246.911C102.869 246.998 102.789 246.838 102.832 246.924C102.833 246.927 102.834 246.929 102.835 246.931C102.836 246.933 102.837 246.935 102.838 246.937C102.84 246.939 102.841 246.942 102.842 246.944C102.843 246.946 102.844 246.948 102.845 246.95C102.982 247.224 102.721 246.702 102.858 246.976C102.859 246.978 102.86 246.98 102.861 246.982C102.862 246.984 102.863 246.986 102.864 246.989C102.928 247.116 102.807 246.874 102.871 247.001C102.872 247.003 102.873 247.006 102.874 247.008C102.875 247.01 102.876 247.012 102.877 247.014C102.878 247.016 102.879 247.018 102.88 247.02C102.881 247.023 102.882 247.025 102.883 247.027C103.017 247.293 102.763 246.786 102.896 247.052C102.897 247.054 102.898 247.056 102.899 247.058C102.9 247.061 102.901 247.063 102.902 247.065C102.982 247.225 102.828 246.917 102.909 247.077C102.91 247.08 102.911 247.082 102.912 247.084C102.913 247.086 102.914 247.088 102.915 247.09C102.916 247.092 102.917 247.094 102.918 247.096C102.919 247.098 102.92 247.1 102.921 247.103C103.053 247.366 102.802 246.865 102.934 247.128C102.935 247.13 102.936 247.132 102.937 247.134C102.938 247.136 102.939 247.138 102.94 247.14C103.044 247.348 102.842 246.945 102.946 247.153C102.947 247.155 102.948 247.157 102.949 247.159C102.95 247.161 102.951 247.163 102.952 247.165C102.953 247.167 102.954 247.169 102.955 247.171C102.956 247.173 102.958 247.175 102.959 247.177C103.09 247.441 102.839 246.938 102.971 247.202C102.972 247.204 102.973 247.206 102.974 247.208C102.975 247.21 102.976 247.212 102.977 247.214C103.096 247.451 102.865 246.99 102.983 247.227C103.122 247.505 102.85 246.961 102.989 247.239C102.99 247.241 102.991 247.243 102.992 247.245C102.993 247.247 102.994 247.249 102.995 247.251C102.996 247.253 102.998 247.255 102.999 247.257C103 247.259 103.001 247.261 103.002 247.263C103.123 247.507 102.886 247.032 103.008 247.276C103.072 247.403 102.95 247.16 103.014 247.288C103.151 247.563 102.882 247.025 103.02 247.3C103.129 247.517 102.917 247.095 103.026 247.312C103.086 247.433 102.971 247.203 103.032 247.324C103.152 247.565 102.924 247.107 103.044 247.348C103.106 247.472 102.988 247.236 103.05 247.36C103.051 247.362 103.052 247.364 103.053 247.366C103.054 247.368 103.055 247.37 103.056 247.372C103.156 247.571 102.962 247.185 103.062 247.384C103.124 247.508 103.006 247.273 103.068 247.396C103.069 247.398 103.07 247.4 103.071 247.402C103.072 247.404 103.073 247.406 103.074 247.408C103.153 247.566 103.001 247.262 103.08 247.42C103.084 247.428 103.1 247.459 103.103 247.467C103.104 247.469 103.105 247.471 103.106 247.473C103.107 247.475 103.108 247.477 103.109 247.479C103.184 247.627 103.041 247.342 103.115 247.491C103.176 247.611 103.061 247.381 103.121 247.502C103.122 247.504 103.123 247.506 103.124 247.508C103.125 247.51 103.126 247.512 103.127 247.514C103.177 247.615 103.082 247.425 103.133 247.526C103.193 247.646 103.078 247.417 103.138 247.537C103.139 247.539 103.14 247.541 103.141 247.543C103.142 247.545 103.143 247.547 103.144 247.549C103.194 247.649 103.1 247.46 103.15 247.56C103.151 247.562 103.152 247.564 103.153 247.566C103.154 247.568 103.155 247.57 103.156 247.572C103.157 247.574 103.158 247.576 103.159 247.578C103.16 247.58 103.161 247.581 103.162 247.583C103.2 247.66 103.129 247.518 103.167 247.595C103.168 247.597 103.169 247.599 103.17 247.601C103.171 247.602 103.172 247.604 103.173 247.606C103.174 247.608 103.175 247.61 103.176 247.612C103.177 247.614 103.178 247.616 103.179 247.618C103.202 247.663 103.162 247.584 103.184 247.629C103.185 247.631 103.186 247.633 103.187 247.635C103.188 247.637 103.189 247.639 103.19 247.641C103.191 247.642 103.192 247.644 103.193 247.646C103.194 247.648 103.195 247.65 103.196 247.652C103.211 247.682 103.186 247.633 103.201 247.663C103.202 247.665 103.203 247.667 103.204 247.669C103.205 247.671 103.206 247.673 103.207 247.674C103.208 247.676 103.209 247.678 103.21 247.68C103.211 247.682 103.212 247.684 103.213 247.686C103.224 247.708 103.207 247.674 103.218 247.697C103.219 247.699 103.22 247.701 103.221 247.703C103.222 247.704 103.223 247.706 103.224 247.708C103.225 247.71 103.226 247.712 103.227 247.714C103.228 247.716 103.229 247.718 103.23 247.719C103.237 247.734 103.228 247.716 103.235 247.731C103.236 247.732 103.237 247.734 103.238 247.736C103.239 247.738 103.24 247.74 103.241 247.742C103.256 247.771 103.231 247.723 103.246 247.753C103.247 247.755 103.248 247.757 103.249 247.758C103.25 247.76 103.251 247.762 103.252 247.764C103.253 247.766 103.254 247.768 103.255 247.769C103.256 247.771 103.256 247.773 103.257 247.775C103.276 247.812 103.245 247.749 103.263 247.786C103.264 247.788 103.265 247.79 103.266 247.792C103.267 247.793 103.267 247.795 103.268 247.797C103.269 247.799 103.27 247.801 103.271 247.803C103.272 247.804 103.273 247.806 103.274 247.808C103.303 247.867 103.25 247.76 103.279 247.819C103.28 247.821 103.281 247.823 103.282 247.824C103.283 247.826 103.284 247.828 103.285 247.83C103.286 247.832 103.287 247.834 103.288 247.835C103.288 247.837 103.289 247.839 103.29 247.841C103.327 247.913 103.259 247.779 103.296 247.852C103.297 247.854 103.298 247.855 103.298 247.857C103.299 247.859 103.3 247.861 103.301 247.863C103.302 247.864 103.303 247.866 103.304 247.868C103.305 247.87 103.306 247.872 103.307 247.873C103.353 247.967 103.265 247.791 103.312 247.884C103.313 247.886 103.314 247.888 103.315 247.89C103.316 247.891 103.316 247.893 103.317 247.895C103.373 248.006 103.267 247.795 103.323 247.906C103.384 248.027 103.267 247.795 103.328 247.916C103.329 247.918 103.33 247.92 103.331 247.922C103.332 247.924 103.333 247.925 103.333 247.927C103.39 248.041 103.282 247.824 103.339 247.938C103.399 248.058 103.284 247.828 103.344 247.948C103.345 247.95 103.346 247.952 103.347 247.954C103.348 247.956 103.349 247.957 103.349 247.959C103.356 247.973 103.363 247.987 103.37 248.001C103.455 248.169 103.292 247.844 103.376 248.012C103.377 248.013 103.377 248.015 103.378 248.017C103.379 248.019 103.38 248.02 103.381 248.022C103.437 248.134 103.331 247.921 103.386 248.033C103.487 248.234 103.29 247.841 103.391 248.043C103.392 248.045 103.393 248.046 103.394 248.048C103.395 248.05 103.396 248.052 103.397 248.053C103.397 248.055 103.398 248.057 103.399 248.059C103.4 248.06 103.401 248.062 103.402 248.064C103.51 248.28 103.304 247.868 103.412 248.084C103.413 248.086 103.414 248.088 103.415 248.09C103.415 248.091 103.416 248.093 103.417 248.095C103.544 248.347 103.296 247.852 103.422 248.105C103.517 248.295 103.332 247.925 103.427 248.115C103.428 248.117 103.429 248.119 103.43 248.12C103.431 248.122 103.432 248.124 103.433 248.125C103.537 248.335 103.338 247.936 103.443 248.146C103.444 248.147 103.444 248.149 103.445 248.151C103.446 248.152 103.447 248.154 103.448 248.156C103.575 248.411 103.325 247.91 103.453 248.166C103.454 248.168 103.454 248.169 103.455 248.171C103.456 248.173 103.457 248.174 103.458 248.176C103.459 248.178 103.459 248.179 103.46 248.181C103.461 248.183 103.462 248.184 103.463 248.186C103.503 248.266 103.428 248.116 103.468 248.196C103.469 248.198 103.47 248.199 103.47 248.201C103.471 248.203 103.472 248.204 103.473 248.206C103.474 248.208 103.475 248.209 103.475 248.211C103.476 248.213 103.477 248.214 103.478 248.216C103.528 248.315 103.433 248.126 103.483 248.226C103.484 248.228 103.484 248.229 103.485 248.231C103.486 248.232 103.487 248.234 103.488 248.236C103.489 248.237 103.489 248.239 103.49 248.241C103.491 248.242 103.492 248.244 103.493 248.246C103.552 248.364 103.438 248.137 103.498 248.255C103.498 248.257 103.499 248.259 103.5 248.26C103.501 248.262 103.502 248.264 103.503 248.265C103.503 248.267 103.504 248.269 103.505 248.27C103.506 248.272 103.507 248.273 103.507 248.275C103.579 248.419 103.441 248.141 103.512 248.285C103.513 248.287 103.514 248.288 103.515 248.29C103.516 248.291 103.516 248.293 103.517 248.295C103.518 248.296 103.519 248.298 103.52 248.3C103.52 248.301 103.521 248.303 103.522 248.304C103.605 248.47 103.444 248.149 103.527 248.314C103.641 248.543 103.417 248.095 103.532 248.324C103.533 248.325 103.533 248.327 103.534 248.329C103.535 248.33 103.536 248.332 103.537 248.333C103.631 248.523 103.447 248.153 103.541 248.343C103.542 248.345 103.543 248.346 103.544 248.348C103.545 248.349 103.545 248.351 103.546 248.353C103.547 248.354 103.548 248.356 103.549 248.357C103.549 248.359 103.55 248.361 103.551 248.362C103.556 248.372 103.551 248.362 103.556 248.372C103.644 248.549 103.472 248.204 103.56 248.381C103.58 248.419 103.551 248.362 103.57 248.4C103.644 248.548 103.501 248.262 103.575 248.41C103.578 248.416 103.576 248.413 103.579 248.419C103.608 248.475 103.556 248.372 103.584 248.428C103.645 248.55 103.528 248.316 103.589 248.438C103.623 248.506 103.564 248.388 103.598 248.456C103.652 248.565 103.549 248.357 103.603 248.466C103.603 248.467 103.604 248.469 103.605 248.47C103.606 248.472 103.607 248.473 103.607 248.475C103.663 248.586 103.557 248.373 103.612 248.484C103.748 248.757 103.48 248.221 103.617 248.493C103.672 248.604 103.571 248.401 103.626 248.512C103.746 248.752 103.524 248.308 103.644 248.548C103.734 248.729 103.563 248.385 103.653 248.566C103.748 248.757 103.562 248.384 103.657 248.575C103.658 248.576 103.659 248.578 103.66 248.579C103.66 248.581 103.661 248.582 103.662 248.584C103.758 248.777 103.57 248.399 103.666 248.593C103.746 248.752 103.591 248.442 103.671 248.602C103.777 248.815 103.573 248.407 103.68 248.619C103.726 248.712 103.703 248.667 103.748 248.757C103.754 248.768 103.76 248.779 103.765 248.79C103.787 248.834 103.76 248.78 103.782 248.823C103.782 248.825 103.783 248.826 103.784 248.828C103.784 248.829 103.785 248.83 103.786 248.832C103.786 248.833 103.787 248.834 103.788 248.836C103.788 248.837 103.789 248.838 103.79 248.84C103.79 248.841 103.791 248.842 103.792 248.844C103.792 248.845 103.793 248.847 103.794 248.848C103.794 248.849 103.795 248.851 103.796 248.852C103.797 248.853 103.797 248.855 103.798 248.856C103.874 249.009 103.73 248.719 103.806 248.872C103.807 248.873 103.807 248.875 103.808 248.876C103.809 248.877 103.809 248.879 103.81 248.88C103.811 248.881 103.811 248.883 103.812 248.884C103.813 248.885 103.813 248.887 103.814 248.888C103.878 249.017 103.766 248.791 103.83 248.92C103.83 248.921 103.831 248.922 103.832 248.924C103.832 248.925 103.833 248.926 103.834 248.928C103.834 248.929 103.835 248.93 103.836 248.932C103.836 248.933 103.837 248.934 103.838 248.936C103.838 248.937 103.839 248.938 103.84 248.939C103.84 248.941 103.841 248.942 103.842 248.943C103.842 248.945 103.843 248.946 103.843 248.947C103.844 248.949 103.845 248.95 103.845 248.951C103.938 249.137 103.76 248.781 103.853 248.967C103.854 248.968 103.854 248.969 103.855 248.97C103.856 248.972 103.856 248.973 103.857 248.974C103.858 248.976 103.858 248.977 103.859 248.978C103.86 248.979 103.86 248.981 103.861 248.982C104.004 249.268 103.733 248.727 103.876 249.012C103.877 249.014 103.877 249.015 103.878 249.016C103.879 249.017 103.879 249.019 103.88 249.02C103.88 249.021 103.881 249.022 103.882 249.024C103.882 249.025 103.883 249.026 103.884 249.027C103.884 249.029 103.885 249.03 103.885 249.031C103.886 249.032 103.887 249.034 103.887 249.035C103.888 249.036 103.889 249.037 103.889 249.039C103.89 249.04 103.89 249.041 103.891 249.042C103.892 249.044 103.892 249.045 103.893 249.046C103.894 249.047 103.894 249.049 103.895 249.05C103.895 249.051 103.896 249.052 103.897 249.054C103.897 249.055 103.898 249.056 103.899 249.057C103.899 249.059 103.9 249.06 103.9 249.061C103.901 249.062 103.902 249.063 103.902 249.065C103.903 249.066 103.903 249.067 103.904 249.068C103.905 249.07 103.905 249.071 103.906 249.072C103.906 249.073 103.907 249.074 103.908 249.076C103.908 249.077 103.909 249.078 103.91 249.079C104.041 249.342 103.782 248.824 103.913 249.087C103.914 249.088 103.914 249.089 103.915 249.09C103.916 249.092 103.916 249.093 103.917 249.094C103.917 249.095 103.918 249.096 103.919 249.098C103.919 249.099 103.92 249.1 103.92 249.101C104.031 249.322 103.814 248.888 103.924 249.108C103.925 249.11 103.925 249.111 103.926 249.112C103.926 249.113 103.927 249.114 103.928 249.116C103.928 249.117 103.929 249.118 103.929 249.119C103.93 249.12 103.931 249.122 103.931 249.123C104.026 249.313 103.84 248.94 103.935 249.13C103.935 249.131 103.936 249.132 103.937 249.134C103.937 249.135 103.938 249.136 103.938 249.137C103.939 249.138 103.94 249.139 103.94 249.141C103.941 249.142 103.941 249.143 103.942 249.144C104.017 249.295 103.87 249.001 103.946 249.151C103.946 249.152 103.947 249.154 103.947 249.155C103.948 249.156 103.948 249.157 103.949 249.158C103.95 249.16 103.95 249.161 103.951 249.162C103.951 249.163 103.952 249.164 103.953 249.165C104.004 249.268 103.905 249.07 103.956 249.172C103.957 249.174 103.957 249.175 103.958 249.176C103.958 249.177 103.959 249.178 103.96 249.179C103.96 249.18 103.961 249.182 103.961 249.183C103.962 249.184 103.962 249.185 103.963 249.186C104.014 249.288 103.916 249.092 103.966 249.193C103.967 249.194 103.968 249.195 103.968 249.197C103.969 249.198 103.969 249.199 103.97 249.2C103.97 249.201 103.971 249.202 103.972 249.204C103.972 249.205 103.973 249.206 103.973 249.207C104.005 249.271 103.945 249.15 103.977 249.214C103.977 249.215 103.978 249.216 103.978 249.217C103.979 249.218 103.98 249.219 103.98 249.221C103.981 249.222 103.981 249.223 103.982 249.224C103.982 249.225 103.983 249.226 103.984 249.227C103.984 249.228 103.985 249.23 103.985 249.231C103.986 249.232 103.986 249.233 103.987 249.234C103.988 249.236 103.989 249.239 103.99 249.241L111.146 245.663ZM109.882 243.137L105.41 233.849L98.202 237.319L102.674 246.607L109.882 243.137ZM101.806 231.584H77.984V239.584H101.806V231.584ZM74.38 233.849L69.908 243.137L77.116 246.607L81.588 237.319L74.38 233.849ZM69.9343 243.083C69.3744 244.203 69.0068 244.849 68.8078 245.147L75.4642 249.585C75.9532 248.851 76.503 247.834 77.0897 246.661L69.9343 243.083ZM68.6394 245.423C68.696 245.322 68.7165 245.319 68.6302 245.411C68.5466 245.499 68.3956 245.64 68.1492 245.83L73.0268 252.17C73.9775 251.439 74.9701 250.501 75.6326 249.309L68.6394 245.423ZM68.188 245.8C68.2796 245.731 68.3356 245.72 68.301 245.73C68.2577 245.742 68.1149 245.774 67.836 245.774V253.774C69.5617 253.774 71.409 253.384 72.988 252.2L68.188 245.8ZM67.836 245.774C67.8502 245.774 67.6319 245.77 67.1012 245.6C66.592 245.436 65.9199 245.161 65.0669 244.734L61.4891 251.89C63.5452 252.918 65.7672 253.774 67.836 253.774V245.774ZM65.017 244.71C63.6114 244.031 62.8604 243.443 62.5009 243.046C62.196 242.709 62.29 242.656 62.29 242.808H54.29C54.29 247.354 57.9618 250.187 61.539 251.914L65.017 244.71ZM62.29 242.808C62.29 242.926 62.2731 242.777 62.4502 242.245C62.6152 241.751 62.8954 241.08 63.3297 240.211L56.1743 236.633C55.1839 238.614 54.29 240.814 54.29 242.808H62.29ZM63.3539 240.162L86.5739 192.088L79.3701 188.608L56.1501 236.682L63.3539 240.162ZM86.5805 192.074C86.8804 191.447 87.3127 190.951 87.9575 190.541L83.6625 183.791C81.7846 184.986 80.3249 186.612 79.3635 188.622L86.5805 192.074ZM87.8898 190.583C88.6319 190.131 89.2948 189.962 89.938 189.962V181.962C87.7145 181.962 85.6254 182.596 83.7302 183.749L87.8898 190.583ZM89.938 189.962C90.8173 189.962 91.3851 190.164 91.8 190.434C92.2319 190.714 92.7439 191.23 93.2403 192.223L100.396 188.645C99.4015 186.657 98.0215 184.936 96.16 183.726C94.2816 182.505 92.1547 181.962 89.938 181.962V189.962ZM86.2484 209.338L80.5724 221.12L87.7796 224.592L93.4556 212.81L86.2484 209.338ZM84.176 226.856H95.614V218.856H84.176V226.856ZM99.2073 221.099L93.4453 209.317L86.2587 212.831L92.0207 224.613L99.2073 221.099ZM141.422 236.272H137.422V240.272H141.422V236.272ZM168.942 236.96L167.059 240.489L167.154 240.54L167.25 240.585L168.942 236.96ZM170.662 238.938L174.48 237.745L174.48 237.745L170.662 238.938ZM170.662 246.248L166.844 245.055L166.844 245.055L170.662 246.248ZM169.2 248.14L167.411 244.562L167.374 244.581L167.337 244.6L169.2 248.14ZM126.716 245.732L130.53 244.527L130.498 244.427L130.461 244.328L126.716 245.732ZM126.286 190.606L122.34 189.948L122.316 190.095L122.302 190.244L126.286 190.606ZM127.146 188.284L130.675 190.166L130.686 190.146L130.697 190.125L127.146 188.284ZM140.992 189.144L144.829 188.015L144.8 187.916L144.766 187.818L140.992 189.144ZM141.422 240.272H164.814V232.272H141.422V240.272ZM164.814 240.272C165.611 240.272 166.198 240.321 166.607 240.39C167.036 240.461 167.139 240.532 167.059 240.489L170.824 233.431C169.06 232.49 166.854 232.272 164.814 232.272V240.272ZM167.25 240.585C167.217 240.569 167.11 240.508 166.998 240.38C166.888 240.253 166.849 240.147 166.844 240.131L174.48 237.745C173.862 235.77 172.527 234.219 170.633 233.335L167.25 240.585ZM166.844 240.131C166.959 240.5 167.092 241.278 167.092 242.636H175.092C175.092 240.898 174.938 239.211 174.48 237.745L166.844 240.131ZM167.092 242.636C167.092 243.919 166.963 244.675 166.844 245.055L174.48 247.441C174.934 245.986 175.092 244.334 175.092 242.636H167.092ZM166.844 245.055C166.814 245.151 166.817 245.092 166.916 244.963C167.027 244.82 167.197 244.669 167.411 244.562L170.989 251.718C172.88 250.772 173.955 249.121 174.48 247.441L166.844 245.055ZM167.337 244.6C167.049 244.752 166.288 245 164.728 245V253C166.952 253 169.172 252.675 171.063 251.68L167.337 244.6ZM164.728 245H133.768V253H164.728V245ZM133.768 245C132.055 245 131.115 244.757 130.677 244.554C130.485 244.465 130.447 244.411 130.473 244.438C130.484 244.45 130.499 244.47 130.513 244.494C130.527 244.518 130.531 244.532 130.53 244.527L122.901 246.937C124.454 251.854 129.49 253 133.768 253V245ZM130.461 244.328C130.384 244.121 130.2 243.268 130.2 241.346H122.2C122.2 243.437 122.36 245.508 122.97 247.136L130.461 244.328ZM130.2 241.346V193.53H122.2V241.346H130.2ZM130.2 193.53C130.2 192.232 130.229 191.409 130.269 190.968L122.302 190.244C122.228 191.065 122.2 192.19 122.2 193.53H130.2ZM130.231 191.264C130.253 191.136 130.346 190.784 130.675 190.166L123.616 186.402C123.028 187.504 122.548 188.7 122.34 189.948L130.231 191.264ZM130.697 190.125C130.479 190.545 130.231 190.496 130.733 190.322C131.265 190.138 132.247 189.962 133.854 189.962V181.962C131.791 181.962 129.821 182.173 128.116 182.763C126.382 183.363 124.615 184.475 123.595 186.443L130.697 190.125ZM133.854 189.962C135.572 189.962 136.544 190.199 137.02 190.411C137.232 190.506 137.287 190.569 137.272 190.554C137.266 190.548 137.253 190.532 137.239 190.51C137.232 190.5 137.227 190.49 137.223 190.482C137.221 190.478 137.22 190.475 137.219 190.473C137.218 190.471 137.218 190.47 137.218 190.47L144.766 187.818C143.092 183.056 138.106 181.962 133.854 181.962V189.962ZM137.154 190.273C137.273 190.677 137.422 191.696 137.422 193.616H145.422C145.422 191.523 145.284 189.56 144.829 188.015L137.154 190.273ZM137.422 193.616V236.272H145.422V193.616H137.422ZM191.896 233.778H187.896V237.778H191.896V233.778ZM221.308 233.95L220.593 237.885L220.783 237.92L220.976 237.936L221.308 233.95ZM223.63 234.724L221.748 238.253L221.769 238.264L221.789 238.275L223.63 234.724ZM222.77 248.484L221.536 244.679L221.488 244.695L221.439 244.712L222.77 248.484ZM177.19 245.732L181.005 244.527L180.973 244.427L180.936 244.328L177.19 245.732ZM178.308 187.596L181.059 190.5L181.099 190.463L181.137 190.424L178.308 187.596ZM221.308 186.134L220.593 190.069L220.783 190.104L220.976 190.12L221.308 186.134ZM223.63 186.908L221.748 190.437L221.769 190.448L221.789 190.459L223.63 186.908ZM222.77 200.668L221.536 196.863L221.488 196.879L221.439 196.896L222.77 200.668ZM191.896 201.184V197.184H187.896V201.184H191.896ZM191.896 209.87H187.896V213.87H191.896V209.87ZM211.848 210.042L211.133 213.977L211.323 214.012L211.516 214.028L211.848 210.042ZM214.17 210.816L212.288 214.345L212.309 214.356L212.329 214.367L214.17 210.816ZM213.224 224.576L212.02 220.762L211.956 220.782L211.893 220.804L213.224 224.576ZM191.896 225.092V221.092H187.896V225.092H191.896ZM191.896 237.778H218.384V229.778H191.896V237.778ZM218.384 237.778C219.659 237.778 220.334 237.838 220.593 237.885L222.024 230.015C221.021 229.832 219.747 229.778 218.384 229.778V237.778ZM220.976 237.936C220.947 237.934 221.185 237.953 221.748 238.253L225.513 231.195C224.356 230.578 223.046 230.081 221.641 229.964L220.976 237.936ZM221.789 238.275C221.369 238.057 221.418 237.81 221.592 238.311C221.776 238.843 221.952 239.825 221.952 241.432H229.952C229.952 239.369 229.742 237.399 229.152 235.695C228.552 233.96 227.439 232.193 225.472 231.173L221.789 238.275ZM221.952 241.432C221.952 243.154 221.714 244.109 221.511 244.56C221.421 244.758 221.367 244.794 221.4 244.763C221.443 244.722 221.503 244.69 221.536 244.679L224.004 252.289C228.87 250.711 229.952 245.649 229.952 241.432H221.952ZM221.439 244.712C221.127 244.822 220.195 245 218.298 245V253C220.415 253 222.465 252.834 224.102 252.256L221.439 244.712ZM218.298 245H184.242V253H218.298V245ZM184.242 245C182.53 245 181.59 244.757 181.151 244.554C180.959 244.465 180.922 244.411 180.947 244.438C180.959 244.45 180.974 244.47 180.988 244.494C181.002 244.518 181.006 244.532 181.005 244.527L173.376 246.937C174.929 251.854 179.965 253 184.242 253V245ZM180.936 244.328C180.858 244.121 180.674 243.268 180.674 241.346H172.674C172.674 243.437 172.835 245.508 173.445 247.136L180.936 244.328ZM180.674 241.346V193.53H172.674V241.346H180.674ZM180.674 193.53C180.674 192.288 180.793 191.446 180.939 190.915C181.086 190.381 181.204 190.362 181.059 190.5L175.557 184.692C173.185 186.939 172.674 190.431 172.674 193.53H180.674ZM181.137 190.424C181.025 190.536 181.094 190.396 181.694 190.238C182.285 190.082 183.193 189.962 184.5 189.962V181.962C181.302 181.962 177.778 182.469 175.48 184.768L181.137 190.424ZM184.5 189.962H218.384V181.962H184.5V189.962ZM218.384 189.962C219.659 189.962 220.334 190.022 220.593 190.069L222.024 182.199C221.021 182.016 219.747 181.962 218.384 181.962V189.962ZM220.976 190.12C220.947 190.118 221.185 190.137 221.748 190.437L225.513 183.379C224.356 182.762 223.046 182.265 221.641 182.148L220.976 190.12ZM221.789 190.459C221.369 190.241 221.418 189.994 221.592 190.495C221.776 191.027 221.952 192.009 221.952 193.616H229.952C229.952 191.553 229.742 189.583 229.152 187.879C228.552 186.144 227.439 184.377 225.472 183.357L221.789 190.459ZM221.952 193.616C221.952 195.338 221.714 196.293 221.511 196.744C221.421 196.942 221.367 196.978 221.4 196.947C221.443 196.906 221.503 196.874 221.536 196.863L224.004 204.473C228.87 202.895 229.952 197.833 229.952 193.616H221.952ZM221.439 196.896C221.127 197.006 220.195 197.184 218.298 197.184V205.184C220.415 205.184 222.465 205.018 224.102 204.44L221.439 196.896ZM218.298 197.184H191.896V205.184H218.298V197.184ZM187.896 201.184V209.87H195.896V201.184H187.896ZM191.896 213.87H208.924V205.87H191.896V213.87ZM208.924 213.87C210.199 213.87 210.874 213.93 211.133 213.977L212.564 206.107C211.561 205.924 210.287 205.87 208.924 205.87V213.87ZM211.516 214.028C211.487 214.026 211.725 214.045 212.288 214.345L216.053 207.287C214.896 206.67 213.586 206.173 212.181 206.056L211.516 214.028ZM212.329 214.367C211.909 214.149 211.958 213.902 212.132 214.403C212.316 214.935 212.492 215.917 212.492 217.524H220.492C220.492 215.461 220.282 213.491 219.692 211.787C219.092 210.052 217.979 208.285 216.012 207.265L212.329 214.367ZM212.492 217.524C212.492 219.237 212.249 220.177 212.046 220.615C211.957 220.807 211.903 220.844 211.93 220.819C211.942 220.808 211.962 220.792 211.986 220.778C212.01 220.765 212.024 220.76 212.02 220.762L214.429 228.39C219.346 226.838 220.492 221.801 220.492 217.524H212.492ZM211.893 220.804C211.581 220.914 210.649 221.092 208.752 221.092V229.092C210.869 229.092 212.919 228.926 214.556 228.348L211.893 220.804ZM208.752 221.092H191.896V229.092H208.752V221.092ZM187.896 225.092V233.778H195.896V225.092H187.896ZM287.502 186.564L285.62 190.093L285.714 190.144L285.811 190.189L287.502 186.564ZM289.222 188.542L285.404 189.735L285.404 189.735L289.222 188.542ZM289.222 195.766L293.017 197.031L293.029 196.995L293.04 196.959L289.222 195.766ZM287.76 197.572L285.971 193.994L285.971 193.994L287.76 197.572ZM266.948 198.346V194.346H262.948V198.346H266.948ZM266.776 244.528L262.841 243.812L262.809 243.988L262.793 244.166L266.776 244.528ZM266.002 246.764L262.473 244.882L262.448 244.928L262.424 244.975L266.002 246.764ZM255.166 248.484L253.901 252.279L253.931 252.289L253.962 252.298L255.166 248.484ZM252.93 246.764L249.305 248.456L249.375 248.605L249.457 248.749L252.93 246.764ZM252.156 244.528L248.17 244.86L248.186 245.053L248.221 245.244L252.156 244.528ZM252.07 198.346H256.07V194.346H252.07V198.346ZM231.516 197.744L229.634 201.273L229.728 201.324L229.825 201.369L231.516 197.744ZM229.796 195.68L225.978 196.873L225.978 196.873L229.796 195.68ZM229.796 188.542L233.591 189.807L233.603 189.771L233.614 189.735L229.796 188.542ZM231.258 186.65L233.047 190.228L233.047 190.228L231.258 186.65ZM235.644 189.876H283.46V181.876H235.644V189.876ZM283.46 189.876C284.224 189.876 284.784 189.925 285.175 189.991C285.582 190.061 285.687 190.129 285.62 190.093L289.385 183.035C287.632 182.1 285.468 181.876 283.46 181.876V189.876ZM285.811 190.189C285.777 190.173 285.67 190.112 285.559 189.984C285.448 189.857 285.409 189.751 285.404 189.735L293.04 187.349C292.423 185.374 291.087 183.823 289.194 182.939L285.811 190.189ZM285.404 189.735C285.523 190.115 285.652 190.871 285.652 192.154H293.652C293.652 190.456 293.495 188.804 293.04 187.349L285.404 189.735ZM285.652 192.154C285.652 193.437 285.523 194.193 285.404 194.573L293.04 196.959C293.495 195.504 293.652 193.852 293.652 192.154H285.652ZM285.427 194.501C285.41 194.552 285.428 194.475 285.533 194.346C285.646 194.206 285.801 194.079 285.971 193.994L289.549 201.15C291.354 200.247 292.459 198.704 293.017 197.031L285.427 194.501ZM285.971 193.994C285.741 194.11 284.996 194.346 283.374 194.346V202.346C285.536 202.346 287.716 202.066 289.549 201.15L285.971 193.994ZM283.374 194.346H266.948V202.346H283.374V194.346ZM262.948 198.346V241.604H270.948V198.346H262.948ZM262.948 241.604C262.948 242.878 262.888 243.554 262.841 243.812L270.712 245.244C270.894 244.241 270.948 242.967 270.948 241.604H262.948ZM262.793 244.166C262.799 244.091 262.807 244.114 262.76 244.252C262.713 244.387 262.626 244.595 262.473 244.882L269.532 248.646C270.12 247.543 270.635 246.261 270.76 244.89L262.793 244.166ZM262.424 244.975C262.462 244.9 262.509 244.828 262.564 244.762C262.618 244.697 262.668 244.653 262.703 244.626C262.771 244.573 262.753 244.609 262.562 244.67L264.971 252.298C266.795 251.722 268.571 250.571 269.58 248.553L262.424 244.975ZM262.562 244.67C262.016 244.842 261.035 245 259.466 245V253C261.452 253 263.338 252.814 264.971 252.298L262.562 244.67ZM259.466 245C257.897 245 256.917 244.842 256.371 244.67L253.962 252.298C255.594 252.814 257.481 253 259.466 253V245ZM256.431 244.689C256.273 244.637 256.24 244.601 256.272 244.626C256.287 244.637 256.311 244.658 256.338 244.689C256.365 244.72 256.387 244.751 256.403 244.779L249.457 248.749C250.488 250.553 252.11 251.682 253.901 252.279L256.431 244.689ZM256.555 245.072C256.236 244.389 256.123 243.986 256.092 243.812L248.221 245.244C248.418 246.331 248.821 247.419 249.305 248.456L256.555 245.072ZM256.142 244.196C256.099 243.677 256.07 242.806 256.07 241.518H248.07C248.07 242.867 248.099 244.003 248.17 244.86L256.142 244.196ZM256.07 241.518V198.346H248.07V241.518H256.07ZM252.07 194.346H235.558V202.346H252.07V194.346ZM235.558 194.346C234.775 194.346 234.186 194.302 233.761 194.239C233.318 194.173 233.173 194.103 233.208 194.119L229.825 201.369C231.507 202.154 233.585 202.346 235.558 202.346V194.346ZM233.399 194.215C233.384 194.207 233.442 194.237 233.514 194.323C233.547 194.363 233.573 194.402 233.591 194.436C233.609 194.47 233.615 194.489 233.614 194.487L225.978 196.873C226.583 198.809 227.862 200.328 229.634 201.273L233.399 194.215ZM233.614 194.487C233.495 194.107 233.366 193.351 233.366 192.068H225.366C225.366 193.766 225.524 195.418 225.978 196.873L233.614 194.487ZM233.366 192.068C233.366 190.768 233.499 190.081 233.591 189.807L226.001 187.277C225.52 188.723 225.366 190.387 225.366 192.068H233.366ZM233.614 189.735C233.644 189.639 233.641 189.698 233.542 189.827C233.431 189.97 233.261 190.121 233.047 190.228L229.469 183.072C227.578 184.018 226.503 185.669 225.978 187.349L233.614 189.735ZM233.047 190.228C233.278 190.112 234.022 189.876 235.644 189.876V181.876C233.482 181.876 231.303 182.156 229.469 183.072L233.047 190.228ZM350.406 186.564L348.524 190.093L348.618 190.144L348.715 190.189L350.406 186.564ZM352.126 188.542L348.309 189.735L348.309 189.735L352.126 188.542ZM352.126 195.766L355.921 197.031L355.933 196.995L355.944 196.959L352.126 195.766ZM350.664 197.572L348.876 193.994L348.876 193.994L350.664 197.572ZM329.852 198.346V194.346H325.852V198.346H329.852ZM329.68 244.528L325.745 243.812L325.713 243.988L325.697 244.166L329.68 244.528ZM328.906 246.764L325.377 244.882L325.352 244.928L325.329 244.975L328.906 246.764ZM318.07 248.484L316.806 252.279L316.836 252.289L316.866 252.298L318.07 248.484ZM315.834 246.764L312.21 248.456L312.28 248.605L312.361 248.749L315.834 246.764ZM315.06 244.528L311.074 244.86L311.09 245.053L311.125 245.244L315.06 244.528ZM314.974 198.346H318.974V194.346H314.974V198.346ZM294.42 197.744L292.538 201.273L292.632 201.324L292.729 201.369L294.42 197.744ZM292.7 195.68L288.883 196.873L288.883 196.873L292.7 195.68ZM292.7 188.542L296.495 189.807L296.507 189.771L296.518 189.735L292.7 188.542ZM294.162 186.65L295.951 190.228L295.951 190.228L294.162 186.65ZM298.548 189.876H346.364V181.876H298.548V189.876ZM346.364 189.876C347.128 189.876 347.688 189.925 348.08 189.991C348.487 190.061 348.592 190.129 348.524 190.093L352.289 183.035C350.536 182.1 348.372 181.876 346.364 181.876V189.876ZM348.715 190.189C348.682 190.173 348.575 190.112 348.463 189.984C348.352 189.857 348.313 189.751 348.309 189.735L355.944 187.349C355.327 185.374 353.992 183.823 352.098 182.939L348.715 190.189ZM348.309 189.735C348.427 190.115 348.556 190.871 348.556 192.154H356.556C356.556 190.456 356.399 188.804 355.944 187.349L348.309 189.735ZM348.556 192.154C348.556 193.437 348.427 194.193 348.309 194.573L355.944 196.959C356.399 195.504 356.556 193.852 356.556 192.154H348.556ZM348.332 194.501C348.315 194.552 348.332 194.475 348.437 194.346C348.55 194.206 348.705 194.079 348.876 193.994L352.453 201.15C354.258 200.247 355.364 198.704 355.921 197.031L348.332 194.501ZM348.876 193.994C348.645 194.11 347.9 194.346 346.278 194.346V202.346C348.441 202.346 350.62 202.066 352.453 201.15L348.876 193.994ZM346.278 194.346H329.852V202.346H346.278V194.346ZM325.852 198.346V241.604H333.852V198.346H325.852ZM325.852 241.604C325.852 242.878 325.792 243.554 325.745 243.812L333.616 245.244C333.798 244.241 333.852 242.967 333.852 241.604H325.852ZM325.697 244.166C325.704 244.091 325.712 244.114 325.664 244.252C325.617 244.387 325.53 244.595 325.377 244.882L332.436 248.646C333.024 247.543 333.539 246.261 333.664 244.89L325.697 244.166ZM325.329 244.975C325.366 244.9 325.414 244.828 325.468 244.762C325.522 244.697 325.572 244.653 325.608 244.626C325.676 244.573 325.658 244.609 325.466 244.67L327.875 252.298C329.7 251.722 331.475 250.571 332.484 248.553L325.329 244.975ZM325.466 244.67C324.92 244.842 323.94 245 322.37 245V253C324.356 253 326.242 252.814 327.875 252.298L325.466 244.67ZM322.37 245C320.801 245 319.821 244.842 319.275 244.67L316.866 252.298C318.499 252.814 320.385 253 322.37 253V245ZM319.335 244.689C319.178 244.637 319.145 244.601 319.176 244.626C319.192 244.637 319.216 244.658 319.243 244.689C319.269 244.72 319.291 244.751 319.307 244.779L312.361 248.749C313.393 250.553 315.015 251.682 316.806 252.279L319.335 244.689ZM319.459 245.072C319.14 244.389 319.028 243.986 318.996 243.812L311.125 245.244C311.323 246.331 311.726 247.419 312.21 248.456L319.459 245.072ZM319.047 244.196C319.003 243.677 318.974 242.806 318.974 241.518H310.974C310.974 242.867 311.003 244.003 311.074 244.86L319.047 244.196ZM318.974 241.518V198.346H310.974V241.518H318.974ZM314.974 194.346H298.462V202.346H314.974V194.346ZM298.462 194.346C297.68 194.346 297.09 194.302 296.665 194.239C296.222 194.173 296.077 194.103 296.112 194.119L292.729 201.369C294.412 202.154 296.489 202.346 298.462 202.346V194.346ZM296.303 194.215C296.288 194.207 296.346 194.237 296.418 194.323C296.451 194.363 296.477 194.402 296.495 194.436C296.513 194.47 296.519 194.489 296.518 194.487L288.883 196.873C289.487 198.809 290.766 200.328 292.538 201.273L296.303 194.215ZM296.518 194.487C296.4 194.107 296.27 193.351 296.27 192.068H288.27C288.27 193.766 288.428 195.418 288.883 196.873L296.518 194.487ZM296.27 192.068C296.27 190.768 296.404 190.081 296.495 189.807L288.906 187.277C288.424 188.723 288.27 190.387 288.27 192.068H296.27ZM296.518 189.735C296.548 189.639 296.545 189.698 296.446 189.827C296.336 189.97 296.165 190.121 295.951 190.228L292.374 183.072C290.483 184.018 289.407 185.669 288.883 187.349L296.518 189.735ZM295.951 190.228C296.182 190.112 296.927 189.876 298.548 189.876V181.876C296.386 181.876 294.207 182.156 292.374 183.072L295.951 190.228ZM356.591 240.142L353.487 242.664L353.495 242.675L356.591 240.142ZM358.053 229.392L355.283 226.506L355.27 226.518L355.258 226.53L358.053 229.392ZM369.319 231.628L372.407 229.085L372.284 228.936L372.148 228.8L369.319 231.628ZM372.759 234.466L370.663 237.873L370.711 237.902L370.76 237.931L372.759 234.466ZM382.649 225.952L380.493 229.321L380.57 229.371L380.65 229.417L382.649 225.952ZM377.231 223.974L376.506 227.908L376.506 227.908L377.231 223.974ZM370.179 222.082L368.812 225.841L368.85 225.855L368.888 225.868L370.179 222.082ZM363.127 218.9L361.192 222.401L363.127 218.9ZM357.623 213.224L354.109 215.134L354.134 215.18L354.16 215.225L357.623 213.224ZM361.063 190.606L363.892 193.434L363.892 193.434L361.063 190.606ZM385.831 186.306L384.589 190.108L384.635 190.123L384.682 190.137L385.831 186.306ZM391.765 188.972L389.189 192.032L389.265 192.096L389.345 192.157L391.765 188.972ZM393.915 190.606L396.648 187.685L396.498 187.545L396.335 187.421L393.915 190.606ZM394.517 199.55L391.218 197.288L391.214 197.294L391.209 197.301L394.517 199.55ZM384.025 202.13L381.806 205.458L381.831 205.475L381.857 205.491L384.025 202.13ZM382.993 201.27L380.165 204.098L380.248 204.182L380.336 204.26L382.993 201.27ZM381.703 200.152L384.028 196.897L383.921 196.82L383.809 196.751L381.703 200.152ZM372.415 200.41L374.74 203.665L374.754 203.655L374.768 203.645L372.415 200.41ZM372.759 207.892L370.51 211.2L370.54 211.22L370.57 211.24L372.759 207.892ZM378.263 209.87L377.639 213.821L377.639 213.821L378.263 209.87ZM385.401 211.504L384.291 215.347L384.331 215.358L384.37 215.369L385.401 211.504ZM392.539 214.084L390.827 217.699L390.827 217.699L392.539 214.084ZM397.957 219.502L394.46 221.445L394.486 221.491L394.513 221.537L397.957 219.502ZM397.957 238.766L401.49 240.641L401.498 240.626L401.506 240.611L397.957 238.766ZM392.109 245.302L389.946 241.937L389.932 241.946L389.919 241.955L392.109 245.302ZM369.577 248.914L368.478 252.76L368.521 252.772L368.564 252.783L369.577 248.914ZM363.729 246.42L365.918 243.072L365.858 243.033L365.797 242.996L363.729 246.42ZM357.365 241.088L360.642 238.794L360.556 238.671L360.461 238.555L357.365 241.088ZM359.696 237.62C358.437 236.071 358.355 235.324 358.355 235.24H350.355C350.355 238.023 351.764 240.544 353.487 242.664L359.696 237.62ZM358.355 235.24C358.355 235.559 358.244 235.456 358.66 234.798C359.05 234.181 359.74 233.336 360.848 232.254L355.258 226.53C353.901 227.856 352.742 229.189 351.899 230.522C351.082 231.814 350.355 233.43 350.355 235.24H358.355ZM360.823 232.278C361.698 231.438 362.271 231.328 362.611 231.328V223.328C359.741 223.328 357.275 224.594 355.283 226.506L360.823 232.278ZM362.611 231.328C362.297 231.328 362.481 231.224 363.333 231.771C364.118 232.274 365.166 233.132 366.491 234.456L372.148 228.8C370.605 227.257 369.102 225.966 367.651 225.035C366.267 224.149 364.53 223.328 362.611 223.328V231.328ZM366.231 234.171C367.4 235.59 368.93 236.807 370.663 237.873L374.855 231.059C373.606 230.291 372.844 229.616 372.407 229.085L366.231 234.171ZM370.76 237.931C372.646 239.019 374.714 239.756 376.887 239.756V231.756C376.538 231.756 375.853 231.633 374.758 231.001L370.76 237.931ZM376.887 239.756C379.996 239.756 383.07 239.137 385.417 237.219C387.918 235.175 388.885 232.252 388.885 229.22H380.885C380.885 230.545 380.519 230.89 380.354 231.025C380.035 231.285 379.111 231.756 376.887 231.756V239.756ZM388.885 229.22C388.885 226.033 386.943 223.812 384.648 222.487L380.65 229.417C381.028 229.635 381.077 229.749 381.025 229.673C380.996 229.63 380.955 229.556 380.924 229.457C380.893 229.357 380.885 229.273 380.885 229.22H388.885ZM384.805 222.583C382.826 221.316 380.497 220.508 377.956 220.04L376.506 227.908C378.322 228.242 379.606 228.753 380.493 229.321L384.805 222.583ZM377.956 220.04C376.003 219.68 373.843 219.105 371.47 218.296L368.888 225.868C371.56 226.779 374.102 227.465 376.506 227.908L377.956 220.04ZM371.546 218.323C369.204 217.471 367.045 216.495 365.062 215.399L361.192 222.401C363.567 223.713 366.109 224.858 368.812 225.841L371.546 218.323ZM365.062 215.399C363.635 214.61 362.286 213.298 361.087 211.223L354.16 215.225C355.942 218.31 358.262 220.782 361.192 222.401L365.062 215.399ZM361.138 211.314C360.086 209.38 359.473 206.913 359.473 203.764H351.473C351.473 207.954 352.293 211.794 354.109 215.134L361.138 211.314ZM359.473 203.764C359.473 199.831 360.878 196.448 363.892 193.434L358.235 187.778C353.795 192.217 351.473 197.606 351.473 203.764H359.473ZM363.892 193.434C366.772 190.554 370.801 188.93 376.457 188.93V180.93C369.156 180.93 362.922 183.09 358.235 187.778L363.892 193.434ZM376.457 188.93C379.543 188.93 382.241 189.341 384.589 190.108L387.073 182.504C383.803 181.436 380.251 180.93 376.457 180.93V188.93ZM384.682 190.137C387.475 190.975 388.769 191.678 389.189 192.032L394.342 185.912C392.583 184.431 389.92 183.357 386.98 182.475L384.682 190.137ZM389.345 192.157L391.495 193.791L396.335 187.421L394.185 185.787L389.345 192.157ZM391.182 193.527C391.926 194.223 392.334 194.729 392.534 195.045C392.746 195.38 392.581 195.272 392.581 194.82H400.581C400.581 193.222 399.972 191.838 399.295 190.768C398.606 189.679 397.681 188.652 396.648 187.685L391.182 193.527ZM392.581 194.82C392.581 194.638 392.623 194.75 392.399 195.263C392.188 195.746 391.817 196.415 391.218 197.288L397.816 201.812C399.237 199.741 400.581 197.282 400.581 194.82H392.581ZM391.209 197.301C389.496 199.82 388.535 199.85 388.497 199.85V207.85C392.587 207.85 395.639 205.013 397.825 201.799L391.209 197.301ZM388.497 199.85C388.517 199.85 388.34 199.851 387.912 199.687C387.49 199.524 386.921 199.238 386.194 198.769L381.857 205.491C383.852 206.779 386.137 207.85 388.497 207.85V199.85ZM386.244 198.802C386.314 198.849 386.346 198.875 386.32 198.854C386.301 198.84 386.262 198.809 386.199 198.756C386.072 198.65 385.892 198.495 385.651 198.28L380.336 204.26C380.8 204.673 381.359 205.16 381.806 205.458L386.244 198.802ZM385.822 198.442C385.253 197.873 384.654 197.344 384.028 196.897L379.378 203.407C379.554 203.533 379.816 203.75 380.165 204.098L385.822 198.442ZM383.809 196.751C381.793 195.503 379.452 195.034 377.059 195.034V203.034C378.45 203.034 379.205 203.31 379.598 203.553L383.809 196.751ZM377.059 195.034C374.533 195.034 372.122 195.677 370.062 197.175L374.768 203.645C375.231 203.308 375.916 203.034 377.059 203.034V195.034ZM370.09 197.155C367.735 198.838 366.609 201.339 366.609 204.108H374.609C374.609 203.956 374.623 203.859 374.635 203.804C374.641 203.777 374.646 203.759 374.65 203.749C374.651 203.744 374.653 203.74 374.653 203.738C374.654 203.736 374.655 203.735 374.655 203.735C374.655 203.735 374.655 203.735 374.654 203.736C374.654 203.737 374.653 203.738 374.652 203.739C374.651 203.741 374.651 203.741 374.653 203.738C374.657 203.734 374.68 203.708 374.74 203.665L370.09 197.155ZM366.609 204.108C366.609 207.156 368.135 209.585 370.51 211.2L375.008 204.584C374.7 204.375 374.627 204.244 374.624 204.239C374.621 204.233 374.621 204.232 374.619 204.227C374.618 204.22 374.609 204.184 374.609 204.108H366.609ZM370.57 211.24C372.633 212.588 375.032 213.409 377.639 213.821L378.887 205.919C377.137 205.643 375.867 205.145 374.948 204.544L370.57 211.24ZM377.639 213.821C379.623 214.134 381.838 214.638 384.291 215.347L386.511 207.661C383.805 206.879 381.261 206.294 378.887 205.919L377.639 213.821ZM384.37 215.369C386.741 216.001 388.889 216.781 390.827 217.699L394.251 210.469C391.832 209.323 389.221 208.383 386.432 207.639L384.37 215.369ZM390.827 217.699C392.095 218.3 393.34 219.428 394.46 221.445L401.454 217.559C399.707 214.416 397.34 211.932 394.251 210.469L390.827 217.699ZM394.513 221.537C395.553 223.297 396.193 225.674 396.193 228.876H404.193C404.193 224.625 403.342 220.752 401.401 217.467L394.513 221.537ZM396.193 228.876C396.193 232.059 395.56 234.706 394.408 236.921L401.506 240.611C403.336 237.093 404.193 233.146 404.193 228.876H396.193ZM394.424 236.891C393.218 239.163 391.715 240.8 389.946 241.937L394.272 248.667C397.319 246.708 399.715 243.987 401.49 240.641L394.424 236.891ZM389.919 241.955C385.89 244.591 381.686 245.86 377.231 245.86V253.86C383.325 253.86 389.04 252.09 394.299 248.649L389.919 241.955ZM377.231 245.86C374.85 245.86 372.642 245.582 370.591 245.045L368.564 252.783C371.329 253.508 374.222 253.86 377.231 253.86V245.86ZM370.676 245.068C368.51 244.449 366.967 243.758 365.918 243.072L361.54 249.768C363.473 251.032 365.828 252.003 368.478 252.76L370.676 245.068ZM365.797 242.996C362.95 241.277 361.378 239.846 360.642 238.794L354.088 243.382C355.76 245.77 358.431 247.894 361.662 249.844L365.797 242.996ZM360.461 238.555L359.687 237.609L353.495 242.675L354.269 243.621L360.461 238.555ZM453.232 187.166L455.513 183.88L455.434 183.825L455.352 183.774L453.232 187.166ZM455.468 197.4L452.155 195.159L452.149 195.168L452.143 195.176L455.468 197.4ZM436.892 225.178L433.567 222.954L432.892 223.964V225.178H436.892ZM436.72 244.614L432.775 243.956L432.75 244.103L432.737 244.252L436.72 244.614ZM435.946 246.85L439.476 248.732L439.476 248.732L435.946 246.85ZM433.624 248.656L434.829 252.47L434.829 252.47L433.624 248.656ZM424.852 248.656L426.057 244.842L426.057 244.842L424.852 248.656ZM422.53 246.85L418.953 248.639L418.976 248.686L419.001 248.732L422.53 246.85ZM421.67 244.528L417.684 244.86L417.7 245.053L417.735 245.244L421.67 244.528ZM421.584 225.178H425.584V223.964L424.909 222.954L421.584 225.178ZM403.008 197.4L406.333 195.176L406.327 195.168L406.321 195.159L403.008 197.4ZM404.814 187.596L407.015 190.936L407.042 190.919L407.068 190.901L404.814 187.596ZM412.812 185.704L410.46 188.939L410.548 189.003L410.639 189.062L412.812 185.704ZM415.908 189.23L419.3 187.11L419.294 187.1L419.288 187.09L415.908 189.23ZM429.238 210.558L425.846 212.678L429.238 218.105L432.63 212.678L429.238 210.558ZM442.568 189.23L439.189 187.09L439.183 187.1L439.176 187.11L442.568 189.23ZM445.406 185.876L447.569 189.241L447.652 189.188L447.731 189.131L445.406 185.876ZM450.952 190.452C452.146 191.281 452.826 191.954 453.181 192.431C453.518 192.885 453.446 193 453.446 192.842H461.446C461.446 188.898 458.513 185.961 455.513 183.88L450.952 190.452ZM453.446 192.842C453.446 192.63 453.496 192.713 453.282 193.206C453.083 193.666 452.729 194.311 452.155 195.159L458.781 199.641C460.134 197.641 461.446 195.24 461.446 192.842H453.446ZM452.143 195.176L433.567 222.954L440.217 227.402L458.793 199.624L452.143 195.176ZM432.892 225.178V241.604H440.892V225.178H432.892ZM432.892 241.604C432.892 242.86 432.834 243.6 432.775 243.956L440.666 245.272C440.836 244.252 440.892 242.986 440.892 241.604H432.892ZM432.737 244.252C432.743 244.177 432.752 244.2 432.704 244.338C432.657 244.473 432.57 244.681 432.417 244.968L439.476 248.732C440.064 247.629 440.579 246.347 440.704 244.976L432.737 244.252ZM432.417 244.968C432.432 244.94 432.455 244.904 432.485 244.868C432.515 244.832 432.545 244.806 432.566 244.789C432.61 244.755 432.585 244.789 432.42 244.842L434.829 252.47C436.731 251.869 438.44 250.673 439.476 248.732L432.417 244.968ZM432.42 244.842C431.883 245.011 430.88 245.172 429.238 245.172V253.172C431.266 253.172 433.187 252.989 434.829 252.47L432.42 244.842ZM429.238 245.172C427.596 245.172 426.594 245.011 426.057 244.842L423.648 252.47C425.29 252.989 427.211 253.172 429.238 253.172V245.172ZM426.057 244.842C425.891 244.789 425.866 244.755 425.91 244.789C425.932 244.806 425.961 244.832 425.991 244.868C426.022 244.904 426.045 244.94 426.06 244.968L419.001 248.732C420.036 250.673 421.745 251.869 423.648 252.47L426.057 244.842ZM426.108 245.061C425.73 244.306 425.624 243.916 425.606 243.812L417.735 245.244C417.945 246.402 418.413 247.56 418.953 248.639L426.108 245.061ZM425.656 244.196C425.613 243.68 425.584 242.783 425.584 241.432H417.584C417.584 242.833 417.612 244 417.684 244.86L425.656 244.196ZM425.584 241.432V225.178H417.584V241.432H425.584ZM424.909 222.954L406.333 195.176L399.683 199.624L418.259 227.402L424.909 222.954ZM406.321 195.159C405.748 194.311 405.394 193.666 405.194 193.206C404.98 192.713 405.03 192.63 405.03 192.842H397.03C397.03 195.24 398.342 197.641 399.695 199.641L406.321 195.159ZM405.03 192.842C405.03 192.842 405.03 192.842 405.03 192.842C405.03 192.843 405.03 192.843 405.03 192.843C405.03 192.844 405.03 192.844 405.03 192.843C405.03 192.842 405.032 192.832 405.04 192.81C405.055 192.768 405.099 192.663 405.22 192.495C405.478 192.138 406.009 191.599 407.015 190.936L402.613 184.256C399.708 186.171 397.03 188.968 397.03 192.842H405.03ZM407.068 190.901C408.238 190.103 409.132 189.581 409.78 189.272C410.523 188.919 410.593 189.016 410.232 189.016V181.016C408.783 181.016 407.405 181.543 406.341 182.05C405.183 182.601 403.914 183.369 402.561 184.291L407.068 190.901ZM410.232 189.016C410.503 189.016 410.635 189.045 410.664 189.053C410.684 189.059 410.595 189.037 410.46 188.939L415.165 182.469C413.627 181.35 411.84 181.016 410.232 181.016V189.016ZM410.639 189.062C410.891 189.225 411.55 189.824 412.529 191.37L419.288 187.09C418.088 185.196 416.683 183.444 414.985 182.346L410.639 189.062ZM412.516 191.35L425.846 212.678L432.63 208.438L419.3 187.11L412.516 191.35ZM432.63 212.678L445.96 191.35L439.176 187.11L425.846 208.438L432.63 212.678ZM445.948 191.37C446.429 190.61 446.83 190.062 447.148 189.685C447.486 189.286 447.63 189.202 447.569 189.241L443.243 182.511C441.651 183.535 440.315 185.312 439.189 187.09L445.948 191.37ZM447.731 189.131C447.823 189.065 447.919 189.016 448.158 189.016V181.016C446.334 181.016 444.595 181.54 443.081 182.621L447.731 189.131ZM448.158 189.016C447.921 189.016 448.038 188.963 448.683 189.237C449.268 189.484 450.069 189.906 451.112 190.558L455.352 183.774C454.102 182.993 452.911 182.339 451.804 181.87C450.758 181.427 449.485 181.016 448.158 181.016V189.016Z" fill="#CA6D0B" mask="url(#path-3-outside-1_4_9)"/>
<path d="M189.035 326.261C187.875 327.026 186.442 327.628 184.735 328.066C183.051 328.525 181.399 328.755 179.779 328.755C177.351 328.755 175.261 328.317 173.511 327.442C171.782 326.545 170.458 325.309 169.539 323.733C168.621 322.158 168.161 320.353 168.161 318.318V297.707H160.218V293.44H168.161V285.596L173.675 284.939V293.44H185.622L184.965 297.707H173.675V318.252C173.675 320.222 174.189 321.698 175.217 322.683C176.268 323.668 177.952 324.16 180.272 324.16C182.613 324.16 184.823 323.613 186.902 322.519L189.035 326.261ZM206.486 298.166C207.82 296.416 209.461 295.07 211.409 294.129C213.378 293.188 215.413 292.718 217.513 292.718C220.817 292.718 223.257 293.593 224.832 295.344C226.43 297.094 227.228 299.61 227.228 302.892V328H221.714V303.024C221.714 300.967 221.233 299.457 220.27 298.494C219.308 297.532 217.798 297.05 215.741 297.05C213.925 297.05 212.186 297.63 210.523 298.79C208.86 299.928 207.514 301.273 206.486 302.827V328H200.972V279.59L206.486 278.999V298.166ZM244.679 312.673C244.767 315.255 245.27 317.41 246.189 319.138C247.108 320.845 248.311 322.114 249.799 322.946C251.287 323.755 252.95 324.16 254.788 324.16C256.495 324.16 258.059 323.908 259.481 323.405C260.925 322.902 262.435 322.114 264.011 321.042L266.603 324.685C264.984 325.954 263.124 326.95 261.024 327.672C258.945 328.394 256.845 328.755 254.722 328.755C251.418 328.755 248.574 328.011 246.189 326.523C243.804 325.035 241.988 322.935 240.741 320.222C239.515 317.508 238.903 314.358 238.903 310.769C238.903 307.29 239.526 304.183 240.774 301.448C242.021 298.713 243.782 296.58 246.058 295.048C248.333 293.495 250.981 292.718 254 292.718C256.888 292.718 259.383 293.396 261.483 294.753C263.606 296.109 265.225 298.068 266.341 300.628C267.479 303.166 268.047 306.174 268.047 309.653C268.047 310.66 268.004 311.666 267.916 312.673H244.679ZM254.066 297.247C251.396 297.247 249.219 298.188 247.535 300.07C245.872 301.93 244.931 304.708 244.712 308.406H262.731C262.665 304.774 261.866 302.006 260.335 300.103C258.803 298.199 256.713 297.247 254.066 297.247ZM302.499 292.718C304.469 292.718 306.077 293.407 307.324 294.786C308.571 296.142 309.195 298.637 309.195 302.269V328H304.075V303.155C304.075 301.514 304.02 300.289 303.911 299.479C303.801 298.648 303.561 298.035 303.189 297.641C302.817 297.225 302.226 297.017 301.416 297.017C299.163 297.017 297.15 298.396 295.377 301.153V328H290.224V303.155C290.224 301.514 290.17 300.289 290.06 299.479C289.951 298.648 289.71 298.035 289.338 297.641C288.966 297.225 288.376 297.017 287.566 297.017C285.312 297.017 283.299 298.396 281.527 301.153V328H276.44V293.44H280.772L281.1 297.444C282.151 295.934 283.267 294.775 284.448 293.965C285.63 293.134 287.019 292.718 288.616 292.718C291.876 292.718 293.966 294.239 294.885 297.28C295.913 295.792 297.018 294.665 298.2 293.899C299.403 293.112 300.836 292.718 302.499 292.718ZM323.429 312.673C323.517 315.255 324.02 317.41 324.939 319.138C325.858 320.845 327.061 322.114 328.549 322.946C330.037 323.755 331.7 324.16 333.538 324.16C335.245 324.16 336.809 323.908 338.231 323.405C339.675 322.902 341.185 322.114 342.761 321.042L345.353 324.685C343.734 325.954 341.874 326.95 339.774 327.672C337.695 328.394 335.595 328.755 333.472 328.755C330.168 328.755 327.324 328.011 324.939 326.523C322.554 325.035 320.738 322.935 319.491 320.222C318.265 317.508 317.653 314.358 317.653 310.769C317.653 307.29 318.276 304.183 319.524 301.448C320.771 298.713 322.532 296.58 324.808 295.048C327.083 293.495 329.731 292.718 332.75 292.718C335.638 292.718 338.133 293.396 340.233 294.753C342.356 296.109 343.975 298.068 345.091 300.628C346.229 303.166 346.797 306.174 346.797 309.653C346.797 310.66 346.754 311.666 346.666 312.673H323.429ZM332.816 297.247C330.146 297.247 327.969 298.188 326.285 300.07C324.622 301.93 323.681 304.708 323.462 308.406H341.481C341.415 304.774 340.616 302.006 339.085 300.103C337.553 298.199 335.463 297.247 332.816 297.247Z" fill="#D69D58"/>
</svg>
